<?xml version="1.0" encoding="UTF-8" standalone="no" ?>
<!DOCTYPE svg PUBLIC "-//W3C//DTD SVG 1.1//EN" "http://www.w3.org/Graphics/SVG/1.1/DTD/svg11.dtd">
<svg xmlns="http://www.w3.org/2000/svg" xmlns:xlink="http://www.w3.org/1999/xlink" version="1.1" width="500" height="500" viewBox="0 0 500 500" xml:space="preserve">
<desc>Created with Fabric.js 3.6.3</desc>
<defs>
</defs>
<g transform="matrix(1 0 0 1 250 250)"  >
<rect style="stroke: none; stroke-width: 1; stroke-dasharray: none; stroke-linecap: butt; stroke-dashoffset: 0; stroke-linejoin: miter; stroke-miterlimit: 4; fill: rgb(0,67,88); fill-rule: nonzero; opacity: 1;"  x="-250" y="-250" rx="0" ry="0" width="500" height="500" />
</g>
<g transform="matrix(1 0 0 1 262.34000000000003 281.07699999999994)" style=""  ><path fill="url(#CUSTOM_SVGID_1879)" opacity="1" d="M-159.59 6.68Q-159.59 8.21-159.16 8.81Q-158.74 9.41-157.46 9.80L-157.46 9.80L-156.71 10.02L-157.07 11.15L-165.80 11.15L-166.23 9.94L-165.38 9.73Q-164.42 9.45-163.96 9.13Q-163.50 8.81-163.30 8.19Q-163.10 7.57-163.10 6.43L-163.10 6.43L-163.10-9.62Q-163.10-11.25-163.57-11.89Q-164.03-12.53-165.38-12.92L-165.38-12.92L-166.23-13.13L-165.80-14.34L-157.99-14.34L-157.53-13.77L-157.99-13.13Q-158.88-11.96-159.24-10.65Q-159.59-9.33-159.59-7.20L-159.59-7.20L-159.59 6.68ZM-144.25 9.20L-143.69 10.23Q-145.07 11.65-147.09 11.65L-147.09 11.65Q-148.73 11.65-149.85 10.78Q-150.96 9.91-151.82 8.17L-151.82 8.17L-155.05 1.71Q-155.61 0.61-156.47-0.05Q-157.32-0.71-158.60-1.13L-158.60-1.13Q-158.67-1.17-158.72-1.29Q-158.77-1.42-158.77-1.52L-158.77-1.52Q-158.77-2.37-158.03-2.37L-158.03-2.37L-157.21-2.37L-151.43-9.76Q-150.75-10.61-150.75-11.64L-150.75-11.64Q-150.75-12.53-151.25-13.20L-151.25-13.20L-151.64-13.77L-151.00-14.34L-144.89-14.34L-144.47-13.13L-145.32-12.92Q-146.10-12.74-146.76-12.30Q-147.41-11.85-148.09-11.00L-148.09-11.00L-155.26-1.84Q-153.56-1.56-152.40-0.63Q-151.25 0.29-150.36 2.03L-150.36 2.03L-147.02 8.63Q-146.74 9.16-146.42 9.43Q-146.10 9.70-145.64 9.70L-145.64 9.70Q-144.89 9.70-144.25 9.20L-144.25 9.20Z"/>
    <linearGradient id="CUSTOM_SVGID_1879" gradientUnits="userSpaceOnUse" gradientTransform="matrix(1 0 0 1 -186.84 -20.057499999999997)"  x1="0" y1="0" x2="373.68" y2="40.114999999999995">
      <stop  offset="0" style="stop-color:#FFDA4E;stop-opacity:undefined"/><stop  offset="0.32" style="stop-color:#FBDE8A;stop-opacity:undefined"/><stop  offset="0.68" style="stop-color:#D8A517;stop-opacity:undefined"/><stop  offset="1" style="stop-color:#F6BE21;stop-opacity:undefined"/>
    </linearGradient>
  <path fill="url(#CUSTOM_SVGID_1880)" opacity="1" d="M-141.73 2.35Q-141.73-0.49-140.69-2.59Q-139.64-4.68-137.67-5.82Q-135.70-6.95-133.07-6.95L-133.07-6.95Q-130.44-6.95-128.49-5.82Q-126.54-4.68-125.47-2.59Q-124.41-0.49-124.41 2.35L-124.41 2.35Q-124.41 5.15-125.47 7.26Q-126.54 9.38-128.49 10.51Q-130.44 11.65-133.07 11.65L-133.07 11.65Q-135.70 11.65-137.67 10.51Q-139.64 9.38-140.69 7.26Q-141.73 5.15-141.73 2.35L-141.73 2.35ZM-128.14 2.45Q-128.14 0.79-128.60-0.95Q-129.06-2.69-130.14-3.90Q-131.23-5.11-132.97-5.11L-132.97-5.11Q-134.46-5.11-135.61-4.17Q-136.76-3.23-137.40-1.52Q-138.04 0.18-138.04 2.38L-138.04 2.38Q-138.04 5.76-136.73 7.74Q-135.41 9.73-133.18 9.73L-133.18 9.73Q-131.72 9.73-130.57 8.83Q-129.42 7.92-128.78 6.27Q-128.14 4.62-128.14 2.45L-128.14 2.45Z"/>
    <linearGradient id="CUSTOM_SVGID_1880" gradientUnits="userSpaceOnUse" gradientTransform="matrix(1 0 0 1 -186.84 -20.057499999999997)"  x1="0" y1="0" x2="373.68" y2="40.114999999999995">
      <stop  offset="0" style="stop-color:#FFDA4E;stop-opacity:undefined"/><stop  offset="0.32" style="stop-color:#FBDE8A;stop-opacity:undefined"/><stop  offset="0.68" style="stop-color:#D8A517;stop-opacity:undefined"/><stop  offset="1" style="stop-color:#F6BE21;stop-opacity:undefined"/>
    </linearGradient>
  <path fill="url(#CUSTOM_SVGID_1881)" opacity="1" d="M-108.04-1.52Q-108.40-2.76-108.77-3.37Q-109.14-3.97-109.78-4.20Q-110.42-4.43-111.59-4.43L-111.59-4.43L-112.02-4.43Q-112.69-4.43-112.93-3.95Q-113.16-3.47-113.16-1.98L-113.16-1.98L-113.16 6.82Q-113.16 8.31-112.75 8.88Q-112.34 9.45-111.10 9.80L-111.10 9.80L-110.28 10.05L-110.71 11.15L-117.81 11.15L-118.23 10.62L-117.81 10.05Q-116.99 8.99-116.67 7.80Q-116.35 6.61-116.35 4.58L-116.35 4.58L-116.35-1.98Q-116.35-3.47-116.58-3.95Q-116.81-4.43-117.49-4.43L-117.49-4.43L-117.84-4.43Q-119.05-4.43-119.69-4.20Q-120.33-3.97-120.72-3.37Q-121.11-2.76-121.43-1.52L-121.43-1.52L-121.64-0.78L-122.74-1.13L-122.74-6.95L-122.17-7.41L-121.64-6.95Q-121.14-6.60-120.26-6.46Q-119.37-6.31-117.88-6.31L-117.88-6.31L-111.59-6.31Q-110.10-6.31-109.22-6.46Q-108.33-6.60-107.87-6.95L-107.87-6.95L-107.33-7.41L-106.77-6.95L-106.77-1.13L-107.87-0.78L-108.04-1.52Z"/>
    <linearGradient id="CUSTOM_SVGID_1881" gradientUnits="userSpaceOnUse" gradientTransform="matrix(1 0 0 1 -186.84 -20.057499999999997)"  x1="0" y1="0" x2="373.68" y2="40.114999999999995">
      <stop  offset="0" style="stop-color:#FFDA4E;stop-opacity:undefined"/><stop  offset="0.32" style="stop-color:#FBDE8A;stop-opacity:undefined"/><stop  offset="0.68" style="stop-color:#D8A517;stop-opacity:undefined"/><stop  offset="1" style="stop-color:#F6BE21;stop-opacity:undefined"/>
    </linearGradient>
  <path fill="url(#CUSTOM_SVGID_1882)" opacity="1" d="M-89.90 8.49Q-91.22 10.02-93.03 10.83Q-94.84 11.65-96.93 11.65L-96.93 11.65Q-99.38 11.65-101.23 10.51Q-103.07 9.38-104.09 7.32Q-105.10 5.26-105.10 2.56L-105.10 2.56Q-105.10-0.28-103.96-2.43Q-102.83-4.57-100.75-5.76Q-98.67-6.95-95.90-6.95L-95.90-6.95Q-93.95-6.95-92.58-6.23Q-91.22-5.50-90.54-4.31Q-89.87-3.12-89.87-1.73L-89.87-1.73Q-89.87-0.24-90.67 1.14Q-91.47 2.53-92.99 3.40Q-94.52 4.26-96.65 4.26L-96.65 4.26Q-97.78 4.26-99.17 3.84Q-100.55 3.41-100.55 2.60L-100.55 2.60Q-100.55 2.31-100.39 2.06Q-100.23 1.82-100.02 1.82L-100.02 1.82Q-99.91 1.82-99.31 2.05Q-98.71 2.28-97.75 2.28L-97.75 2.28Q-95.62 2.28-94.43 1.07Q-93.24-0.14-93.24-1.77L-93.24-1.77Q-93.24-3.15-94.13-4.17Q-95.02-5.18-96.61-5.18L-96.61-5.18Q-98.89-5.18-100.16-3.17Q-101.44-1.17-101.44 2.56L-101.44 2.56Q-101.44 5.72-100.09 7.51Q-98.74 9.31-96.19 9.31L-96.19 9.31Q-93.06 9.31-91.00 7.28L-91.00 7.28Q-90.86 7.14-90.68 7.14L-90.68 7.14Q-90.40 7.14-90.08 7.48Q-89.76 7.81-89.76 8.17L-89.76 8.17Q-89.76 8.35-89.90 8.49L-89.90 8.49Z"/>
    <linearGradient id="CUSTOM_SVGID_1882" gradientUnits="userSpaceOnUse" gradientTransform="matrix(1 0 0 1 -186.84 -20.057499999999997)"  x1="0" y1="0" x2="373.68" y2="40.114999999999995">
      <stop  offset="0" style="stop-color:#FFDA4E;stop-opacity:undefined"/><stop  offset="0.32" style="stop-color:#FBDE8A;stop-opacity:undefined"/><stop  offset="0.68" style="stop-color:#D8A517;stop-opacity:undefined"/><stop  offset="1" style="stop-color:#F6BE21;stop-opacity:undefined"/>
    </linearGradient>
  <path fill="url(#CUSTOM_SVGID_1883)" opacity="1" d="M-70.27 7.71Q-70.27 8.74-69.38 9.25Q-68.50 9.77-67.11 9.77L-67.11 9.77L-67.11 17.12L-68.18 17.54L-68.36 16.76Q-68.85 14.70-69.42 13.53Q-69.99 12.36-70.88 11.76Q-71.76 11.15-73.22 11.15L-73.22 11.15L-81.21 11.15Q-82.66 11.15-83.53 11.74Q-84.40 12.32-84.93 13.48Q-85.47 14.63-86.07 16.76L-86.07 16.76L-86.28 17.51L-87.38 17.08L-87.38 9.77Q-85.22 9.52-84.12 8.29Q-83.02 7.07-82.59 5.13Q-82.16 3.20-81.77-0.63L-81.77-0.63L-81.56-2.48Q-81.45-3.08-81.45-3.44L-81.45-3.44Q-81.45-4.33-81.95-4.65Q-82.45-4.97-83.80-5.18L-83.80-5.18L-84.54-5.43L-84.19-6.49L-68.85-6.49L-68.43-5.96L-68.85-5.43Q-69.67-4.36-69.97-3.15Q-70.27-1.95-70.27 0.08L-70.27 0.08L-70.27 7.71ZM-75.60 9.31Q-74.32 9.31-73.91 8.83Q-73.50 8.35-73.50 6.82L-73.50 6.82L-73.50-2.09Q-73.50-3.58-73.91-4.06Q-74.32-4.54-75.60-4.54L-75.60-4.54L-76.95-4.54Q-77.94-4.54-78.44-4.27Q-78.93-4.01-79.01-3.23L-79.01-3.23Q-79.47 0.89-79.89 3.27Q-80.32 5.65-81.03 7.18Q-81.74 8.70-82.87 9.31L-82.87 9.31L-75.60 9.31Z"/>
    <linearGradient id="CUSTOM_SVGID_1883" gradientUnits="userSpaceOnUse" gradientTransform="matrix(1 0 0 1 -186.84 -20.057499999999997)"  x1="0" y1="0" x2="373.68" y2="40.114999999999995">
      <stop  offset="0" style="stop-color:#FFDA4E;stop-opacity:undefined"/><stop  offset="0.32" style="stop-color:#FBDE8A;stop-opacity:undefined"/><stop  offset="0.68" style="stop-color:#D8A517;stop-opacity:undefined"/><stop  offset="1" style="stop-color:#F6BE21;stop-opacity:undefined"/>
    </linearGradient>
  <path fill="url(#CUSTOM_SVGID_1884)" opacity="1" d="M-55.72 1.74L-55.04 1.74Q-54.40 1.74-54.40 2.31L-54.40 2.31Q-54.40 2.60-54.58 2.76Q-54.76 2.92-55.22 3.16L-55.22 3.16Q-55.79 3.45-56.23 3.80Q-56.68 4.16-57.00 4.80L-57.00 4.80L-58.34 7.42Q-59.48 9.84-60.37 10.74Q-61.26 11.65-62.71 11.65L-62.71 11.65Q-64.27 11.65-65.69 10.34L-65.69 10.34L-65.16 9.34Q-64.56 9.80-63.88 9.80L-63.88 9.80Q-63.49 9.80-63.23 9.57Q-62.96 9.34-62.64 8.84L-62.64 8.84L-60.26 4.37Q-59.52 2.99-57.99 2.24L-57.99 2.24L-61.79-3.40Q-62.32-4.22-62.92-4.61Q-63.53-5.00-64.31-5.18L-64.31-5.18L-65.05-5.39L-64.70-6.49L-58.95-6.49L-58.34-5.96L-58.63-5.39Q-58.66-5.25-58.84-4.79Q-59.02-4.33-59.02-3.94L-59.02-3.94Q-59.02-3.44-58.91-3.07Q-58.81-2.69-58.38-2.13L-58.38-2.13L-55.72 1.74ZM-55.93 11.15L-56.36 10.05L-55.65 9.80Q-54.37 9.45-53.94 8.88Q-53.52 8.31-53.52 6.82L-53.52 6.82L-53.52-2.16Q-53.52-3.65-53.94-4.24Q-54.37-4.82-55.65-5.18L-55.65-5.18L-56.36-5.43L-55.93-6.49L-48.87-6.49L-48.44-5.99L-48.87-5.43Q-49.68-4.33-50.00-3.12Q-50.32-1.91-50.32 0.08L-50.32 0.08L-50.32 7.07Q-50.32 8.56-50.07 9.09Q-49.82 9.63-48.97 9.87L-48.97 9.87L-48.33 10.09L-48.69 11.15L-55.93 11.15ZM-41.20 8.84Q-40.84 9.38-40.59 9.59Q-40.35 9.80-39.96 9.80L-39.96 9.80Q-39.28 9.80-38.68 9.34L-38.68 9.34L-38.11 10.34Q-39.42 11.65-41.13 11.65L-41.13 11.65Q-42.16 11.65-42.83 11.24Q-43.51 10.83-44.09 9.96Q-44.68 9.09-45.49 7.42L-45.49 7.42L-46.84 4.80Q-47.16 4.16-47.61 3.80Q-48.05 3.45-48.62 3.16L-48.62 3.16Q-49.08 2.92-49.26 2.76Q-49.43 2.60-49.43 2.31L-49.43 2.31Q-49.43 1.74-48.79 1.74L-48.79 1.74L-48.12 1.74L-45.46-2.13Q-45.07-2.69-44.93-3.08Q-44.78-3.47-44.78-3.94L-44.78-3.94Q-44.78-4.33-44.96-4.79Q-45.14-5.25-45.17-5.39L-45.17-5.39L-45.49-5.96L-44.93-6.49L-39.14-6.49L-38.71-5.39L-39.49-5.18Q-41.16-4.79-42.05-3.40L-42.05-3.40L-45.78 2.24Q-44.32 2.99-43.58 4.37L-43.58 4.37L-41.20 8.84Z"/>
    <linearGradient id="CUSTOM_SVGID_1884" gradientUnits="userSpaceOnUse" gradientTransform="matrix(1 0 0 1 -186.84 -20.057499999999997)"  x1="0" y1="0" x2="373.68" y2="40.114999999999995">
      <stop  offset="0" style="stop-color:#FFDA4E;stop-opacity:undefined"/><stop  offset="0.32" style="stop-color:#FBDE8A;stop-opacity:undefined"/><stop  offset="0.68" style="stop-color:#D8A517;stop-opacity:undefined"/><stop  offset="1" style="stop-color:#F6BE21;stop-opacity:undefined"/>
    </linearGradient>
  <path fill="url(#CUSTOM_SVGID_1885)" opacity="1" d="M-23.87 11.15L-24.30 10.05L-23.52 9.80Q-22.24 9.45-21.83 8.88Q-21.42 8.31-21.42 6.82L-21.42 6.82L-21.42 3.31L-29.98 3.31L-29.98 7.07Q-29.98 8.06-29.80 8.58Q-29.62 9.09-29.22 9.36Q-28.81 9.63-27.99 9.87L-27.99 9.87L-27.28 10.09L-27.64 11.15L-35.59 11.15L-35.98 10.05L-35.27 9.80Q-33.99 9.45-33.58 8.88Q-33.17 8.31-33.17 6.82L-33.17 6.82L-33.17-2.16Q-33.17-3.65-33.58-4.24Q-33.99-4.82-35.27-5.18L-35.27-5.18L-35.98-5.43L-35.59-6.49L-28.52-6.49L-28.10-5.99L-28.52-5.43Q-29.34-4.36-29.66-3.14Q-29.98-1.91-29.98 0.08L-29.98 0.08L-29.98 1.25L-21.42 1.25L-21.42-2.16Q-21.42-3.65-21.83-4.24Q-22.24-4.82-23.52-5.18L-23.52-5.18L-24.30-5.43L-23.87-6.49L-16.81-6.49L-16.35-5.99L-16.81-5.43Q-17.59-4.36-17.91-3.15Q-18.23-1.95-18.23 0.08L-18.23 0.08L-18.23 7.07Q-18.23 8.06-18.05 8.58Q-17.87 9.09-17.48 9.36Q-17.09 9.63-16.28 9.87L-16.28 9.87L-15.64 10.09L-15.96 11.15L-23.87 11.15Z"/>
    <linearGradient id="CUSTOM_SVGID_1885" gradientUnits="userSpaceOnUse" gradientTransform="matrix(1 0 0 1 -186.84 -20.057499999999997)"  x1="0" y1="0" x2="373.68" y2="40.114999999999995">
      <stop  offset="0" style="stop-color:#FFDA4E;stop-opacity:undefined"/><stop  offset="0.32" style="stop-color:#FBDE8A;stop-opacity:undefined"/><stop  offset="0.68" style="stop-color:#D8A517;stop-opacity:undefined"/><stop  offset="1" style="stop-color:#F6BE21;stop-opacity:undefined"/>
    </linearGradient>
  <path fill="url(#CUSTOM_SVGID_1886)" opacity="1" d="M2.75 8.49Q1.44 10.02-0.37 10.83Q-2.18 11.65-4.28 11.65L-4.28 11.65Q-6.73 11.65-8.57 10.51Q-10.42 9.38-11.43 7.32Q-12.44 5.26-12.44 2.56L-12.44 2.56Q-12.44-0.28-11.31-2.43Q-10.17-4.57-8.09-5.76Q-6.02-6.95-3.25-6.95L-3.25-6.95Q-1.30-6.95 0.07-6.23Q1.44-5.50 2.11-4.31Q2.79-3.12 2.79-1.73L2.79-1.73Q2.79-0.24 1.99 1.14Q1.19 2.53-0.34 3.40Q-1.86 4.26-3.99 4.26L-3.99 4.26Q-5.13 4.26-6.51 3.84Q-7.90 3.41-7.90 2.60L-7.90 2.60Q-7.90 2.31-7.74 2.06Q-7.58 1.82-7.37 1.82L-7.37 1.82Q-7.26 1.82-6.66 2.05Q-6.05 2.28-5.09 2.28L-5.09 2.28Q-2.96 2.28-1.77 1.07Q-0.59-0.14-0.59-1.77L-0.59-1.77Q-0.59-3.15-1.47-4.17Q-2.36-5.18-3.96-5.18L-3.96-5.18Q-6.23-5.18-7.51-3.17Q-8.79-1.17-8.79 2.56L-8.79 2.56Q-8.79 5.72-7.44 7.51Q-6.09 9.31-3.53 9.31L-3.53 9.31Q-0.41 9.31 1.65 7.28L1.65 7.28Q1.79 7.14 1.97 7.14L1.97 7.14Q2.25 7.14 2.57 7.48Q2.89 7.81 2.89 8.17L2.89 8.17Q2.89 8.35 2.75 8.49L2.75 8.49Z"/>
    <linearGradient id="CUSTOM_SVGID_1886" gradientUnits="userSpaceOnUse" gradientTransform="matrix(1 0 0 1 -186.84 -20.057499999999997)"  x1="0" y1="0" x2="373.68" y2="40.114999999999995">
      <stop  offset="0" style="stop-color:#FFDA4E;stop-opacity:undefined"/><stop  offset="0.32" style="stop-color:#FBDE8A;stop-opacity:undefined"/><stop  offset="0.68" style="stop-color:#D8A517;stop-opacity:undefined"/><stop  offset="1" style="stop-color:#F6BE21;stop-opacity:undefined"/>
    </linearGradient>
  <path fill="url(#CUSTOM_SVGID_1887)" opacity="1" d=""/>
    <linearGradient id="CUSTOM_SVGID_1887" gradientUnits="userSpaceOnUse" gradientTransform="matrix(1 0 0 1 -186.84 -20.057499999999997)"  x1="0" y1="0" x2="373.68" y2="40.114999999999995">
      <stop  offset="0" style="stop-color:#FFDA4E;stop-opacity:undefined"/><stop  offset="0.32" style="stop-color:#FBDE8A;stop-opacity:undefined"/><stop  offset="0.68" style="stop-color:#D8A517;stop-opacity:undefined"/><stop  offset="1" style="stop-color:#F6BE21;stop-opacity:undefined"/>
    </linearGradient>
  <path fill="url(#CUSTOM_SVGID_1888)" opacity="1" d="M38.22 4.80Q38.29 5.08 38.57 6.55Q38.85 8.03 39.32 8.99Q39.78 9.94 40.49 10.65L40.49 10.65L40.06 11.15L32.89 11.15L32.54 10.05L33.21 9.80Q34.24 9.55 34.72 8.95Q35.20 8.35 35.20 7.39L35.20 7.39Q35.20 7.10 35.06 6.25L35.06 6.25L33.64-2.59L28.31 8.81L27.21 8.81L21.85-2.59L20.50 5.93Q20.43 6.43 20.43 6.71L20.43 6.71Q20.43 8.28 21.60 10.05L21.60 10.05L22.03 10.65L21.57 11.15L15.46 11.15L15.03 10.05L15.85 9.80Q17.06 9.48 17.48 8.84Q17.91 8.21 18.12 6.82L18.12 6.82L19.54-2.80Q19.58-2.98 19.58-3.26L19.58-3.26Q19.58-4.04 19.08-4.49Q18.58-4.93 17.59-5.18L17.59-5.18L16.92-5.43L17.20-6.49L23.20-6.49L28.28 4.34L33.46-6.49L38.07-6.49L38.61-5.99L38.14-5.43Q36.90-3.65 36.90-2.16L36.90-2.16Q36.90-1.73 37.01-1.24L37.01-1.24L38.22 4.80Z"/>
    <linearGradient id="CUSTOM_SVGID_1888" gradientUnits="userSpaceOnUse" gradientTransform="matrix(1 0 0 1 -186.84 -20.057499999999997)"  x1="0" y1="0" x2="373.68" y2="40.114999999999995">
      <stop  offset="0" style="stop-color:#FFDA4E;stop-opacity:undefined"/><stop  offset="0.32" style="stop-color:#FBDE8A;stop-opacity:undefined"/><stop  offset="0.68" style="stop-color:#D8A517;stop-opacity:undefined"/><stop  offset="1" style="stop-color:#F6BE21;stop-opacity:undefined"/>
    </linearGradient>
  <path fill="url(#CUSTOM_SVGID_1889)" opacity="1" d="M44.29-12.21Q44.29-12.88 45.05-13.72Q45.81-14.55 46.45-14.55L46.45-14.55Q47.13-14.55 47.91-13.73Q48.69-12.92 48.69-12.21L48.69-12.21Q48.69-11.53 47.91-10.72Q47.13-9.90 46.45-9.90L46.45-9.90Q45.85-9.90 45.07-10.72Q44.29-11.53 44.29-12.21L44.29-12.21ZM48.05 8.03Q48.05 9.23 49.11 9.23L49.11 9.23Q50.00 9.23 50.89 8.49L50.89 8.49L51.56 9.41Q50.64 10.44 49.58 11.05Q48.51 11.65 47.59 11.65L47.59 11.65Q46.13 11.65 45.49 10.76Q44.85 9.87 44.85 7.89L44.85 7.89L44.85-3.12Q44.85-3.55 44.69-3.72Q44.53-3.90 44.14-3.90L44.14-3.90L42.58-3.90L42.26-4.82Q43.29-5.75 44.61-6.35Q45.92-6.95 46.95-6.95L46.95-6.95Q47.45-6.95 47.77-6.63Q48.08-6.31 48.08-5.82L48.08-5.82L48.05 8.03Z"/>
    <linearGradient id="CUSTOM_SVGID_1889" gradientUnits="userSpaceOnUse" gradientTransform="matrix(1 0 0 1 -186.84 -20.057499999999997)"  x1="0" y1="0" x2="373.68" y2="40.114999999999995">
      <stop  offset="0" style="stop-color:#FFDA4E;stop-opacity:undefined"/><stop  offset="0.32" style="stop-color:#FBDE8A;stop-opacity:undefined"/><stop  offset="0.68" style="stop-color:#D8A517;stop-opacity:undefined"/><stop  offset="1" style="stop-color:#F6BE21;stop-opacity:undefined"/>
    </linearGradient>
  <path fill="url(#CUSTOM_SVGID_1890)" opacity="1" d="M67.54 7.50Q67.65 7.39 67.86 7.39L67.86 7.39Q68.14 7.39 68.44 7.71Q68.75 8.03 68.75 8.38L68.75 8.38Q68.75 8.60 68.64 8.70L68.64 8.70Q67.40 10.12 65.75 10.89Q64.10 11.65 62.25 11.65L62.25 11.65Q59.80 11.65 57.85 10.46Q55.89 9.27 54.79 7.16Q53.69 5.05 53.69 2.38L53.69 2.38Q53.69-0.42 54.76-2.53Q55.82-4.65 57.76-5.80Q59.69-6.95 62.28-6.95L62.28-6.95Q65.02-6.95 66.78-5.62Q68.53-4.29 68.53-2.20L68.53-2.20Q68.53-0.67 67.56 0.31Q66.58 1.28 65.05 1.28L65.05 1.28Q64.38 1.28 64.38 0.89L64.38 0.89Q64.38 0.79 64.63 0.40Q64.88 0.00 65.05-0.56Q65.23-1.13 65.23-2.02L65.23-2.02Q65.23-3.44 64.33-4.27Q63.42-5.11 61.89-5.11L61.89-5.11Q59.87-5.11 58.63-3.12Q57.39-1.13 57.39 2.10L57.39 2.10Q57.39 5.40 58.86 7.34Q60.33 9.27 62.85 9.27L62.85 9.27Q65.41 9.27 67.54 7.50L67.54 7.50Z"/>
    <linearGradient id="CUSTOM_SVGID_1890" gradientUnits="userSpaceOnUse" gradientTransform="matrix(1 0 0 1 -186.84 -20.057499999999997)"  x1="0" y1="0" x2="373.68" y2="40.114999999999995">
      <stop  offset="0" style="stop-color:#FFDA4E;stop-opacity:undefined"/><stop  offset="0.32" style="stop-color:#FBDE8A;stop-opacity:undefined"/><stop  offset="0.68" style="stop-color:#D8A517;stop-opacity:undefined"/><stop  offset="1" style="stop-color:#F6BE21;stop-opacity:undefined"/>
    </linearGradient>
  <path fill="url(#CUSTOM_SVGID_1891)" opacity="1" d="M84.93-1.52Q84.58-2.76 84.21-3.37Q83.83-3.97 83.19-4.20Q82.56-4.43 81.38-4.43L81.38-4.43L80.96-4.43Q80.28-4.43 80.05-3.95Q79.82-3.47 79.82-1.98L79.82-1.98L79.82 6.82Q79.82 8.31 80.23 8.88Q80.64 9.45 81.88 9.80L81.88 9.80L82.70 10.05L82.27 11.15L75.17 11.15L74.75 10.62L75.17 10.05Q75.99 8.99 76.31 7.80Q76.63 6.61 76.63 4.58L76.63 4.58L76.63-1.98Q76.63-3.47 76.40-3.95Q76.17-4.43 75.49-4.43L75.49-4.43L75.14-4.43Q73.93-4.43 73.29-4.20Q72.65-3.97 72.26-3.37Q71.87-2.76 71.55-1.52L71.55-1.52L71.34-0.78L70.24-1.13L70.24-6.95L70.80-7.41L71.34-6.95Q71.83-6.60 72.72-6.46Q73.61-6.31 75.10-6.31L75.10-6.31L81.38-6.31Q82.87-6.31 83.76-6.46Q84.65-6.60 85.11-6.95L85.11-6.95L85.64-7.41L86.21-6.95L86.21-1.13L85.11-0.78L84.93-1.52Z"/>
    <linearGradient id="CUSTOM_SVGID_1891" gradientUnits="userSpaceOnUse" gradientTransform="matrix(1 0 0 1 -186.84 -20.057499999999997)"  x1="0" y1="0" x2="373.68" y2="40.114999999999995">
      <stop  offset="0" style="stop-color:#FFDA4E;stop-opacity:undefined"/><stop  offset="0.32" style="stop-color:#FBDE8A;stop-opacity:undefined"/><stop  offset="0.68" style="stop-color:#D8A517;stop-opacity:undefined"/><stop  offset="1" style="stop-color:#F6BE21;stop-opacity:undefined"/>
    </linearGradient>
  <path fill="url(#CUSTOM_SVGID_1892)" opacity="1" d="M103.07 8.49Q101.76 10.02 99.95 10.83Q98.14 11.65 96.05 11.65L96.05 11.65Q93.60 11.65 91.75 10.51Q89.90 9.38 88.89 7.32Q87.88 5.26 87.88 2.56L87.88 2.56Q87.88-0.28 89.02-2.43Q90.15-4.57 92.23-5.76Q94.31-6.95 97.07-6.95L97.07-6.95Q99.03-6.95 100.39-6.23Q101.76-5.50 102.44-4.31Q103.11-3.12 103.11-1.73L103.11-1.73Q103.11-0.24 102.31 1.14Q101.51 2.53 99.99 3.40Q98.46 4.26 96.33 4.26L96.33 4.26Q95.19 4.26 93.81 3.84Q92.42 3.41 92.42 2.60L92.42 2.60Q92.42 2.31 92.58 2.06Q92.74 1.82 92.96 1.82L92.96 1.82Q93.06 1.82 93.67 2.05Q94.27 2.28 95.23 2.28L95.23 2.28Q97.36 2.28 98.55 1.07Q99.74-0.14 99.74-1.77L99.74-1.77Q99.74-3.15 98.85-4.17Q97.96-5.18 96.36-5.18L96.36-5.18Q94.09-5.18 92.81-3.17Q91.54-1.17 91.54 2.56L91.54 2.56Q91.54 5.72 92.89 7.51Q94.23 9.31 96.79 9.31L96.79 9.31Q99.91 9.31 101.97 7.28L101.97 7.28Q102.12 7.14 102.29 7.14L102.29 7.14Q102.58 7.14 102.90 7.48Q103.22 7.81 103.22 8.17L103.22 8.17Q103.22 8.35 103.07 8.49L103.07 8.49Z"/>
    <linearGradient id="CUSTOM_SVGID_1892" gradientUnits="userSpaceOnUse" gradientTransform="matrix(1 0 0 1 -186.84 -20.057499999999997)"  x1="0" y1="0" x2="373.68" y2="40.114999999999995">
      <stop  offset="0" style="stop-color:#FFDA4E;stop-opacity:undefined"/><stop  offset="0.32" style="stop-color:#FBDE8A;stop-opacity:undefined"/><stop  offset="0.68" style="stop-color:#D8A517;stop-opacity:undefined"/><stop  offset="1" style="stop-color:#F6BE21;stop-opacity:undefined"/>
    </linearGradient>
  <path fill="url(#CUSTOM_SVGID_1893)" opacity="1" d="M123.27 11.15L115.25 11.15L114.90 10.02L115.61 9.80Q116.88 9.52 117.27 8.92Q117.66 8.31 117.66 6.75L117.66 6.75L117.66 3.59Q116.64 4.41 115.39 4.87Q114.15 5.33 112.45 5.33L112.45 5.33Q109.71 5.33 108.35 4.03Q106.98 2.74 106.98 0.08L106.98 0.08L106.98-0.81Q106.98-2.52 106.93-3.24Q106.87-3.97 106.70-4.38Q106.52-4.79 106.06-5.46L106.06-5.46L105.59-5.96L106.02-6.53L110.25-6.95L110.25-0.42Q110.25 1.35 111.11 2.12Q111.98 2.88 113.62 2.88L113.62 2.88Q116.03 2.88 117.66 1.46L117.66 1.46L117.66-2.16Q117.66-3.65 117.27-4.22Q116.88-4.79 115.61-5.18L115.61-5.18L114.90-5.43L115.25-6.49L122.39-6.49L122.81-5.96L122.39-5.43Q121.57-4.33 121.25-3.12Q120.93-1.91 120.93 0.08L120.93 0.08L120.93 7.07Q120.93 8.45 121.32 8.99Q121.71 9.52 122.92 9.87L122.92 9.87L123.59 10.05L123.27 11.15Z"/>
    <linearGradient id="CUSTOM_SVGID_1893" gradientUnits="userSpaceOnUse" gradientTransform="matrix(1 0 0 1 -186.84 -20.057499999999997)"  x1="0" y1="0" x2="373.68" y2="40.114999999999995">
      <stop  offset="0" style="stop-color:#FFDA4E;stop-opacity:undefined"/><stop  offset="0.32" style="stop-color:#FBDE8A;stop-opacity:undefined"/><stop  offset="0.68" style="stop-color:#D8A517;stop-opacity:undefined"/><stop  offset="1" style="stop-color:#F6BE21;stop-opacity:undefined"/>
    </linearGradient>
  <path fill="url(#CUSTOM_SVGID_1894)" opacity="1" d="M127.11 11.15L126.79 10.05L127.46 9.80Q128.74 9.45 129.15 8.88Q129.56 8.31 129.56 6.82L129.56 6.82L129.56-2.16Q129.56-3.65 129.15-4.24Q128.74-4.82 127.46-5.18L127.46-5.18L126.79-5.43L127.11-6.49L134.21-6.49L134.63-5.99L134.21-5.43Q133.43-4.29 133.09-3.08Q132.75-1.88 132.75 0.08L132.75 0.08L132.75 7.07Q132.75 8.06 132.93 8.58Q133.11 9.09 133.50 9.34Q133.89 9.59 134.74 9.87L134.74 9.87L135.41 10.09L135.10 11.15L127.11 11.15ZM142.66 8.84Q142.98 9.34 143.22 9.57Q143.47 9.80 143.83 9.80L143.83 9.80Q144.54 9.80 145.14 9.34L145.14 9.34L145.71 10.34Q144.40 11.65 142.69 11.65L142.69 11.65Q141.24 11.65 140.28 10.87Q139.32 10.09 138.33 8.42L138.33 8.42L135.88 4.34Q135.59 3.84 135.18 3.57Q134.78 3.31 134.39 3.13Q133.99 2.95 133.85 2.88L133.85 2.88Q133.71 2.81 133.71 2.45L133.71 2.45Q133.71 1.74 134.31 1.74L134.31 1.74L134.95 1.74L138.15-2.13Q138.86-3.01 138.86-4.15L138.86-4.15Q138.86-4.79 138.61-5.39L138.61-5.39L138.33-5.96L138.89-6.49L144.68-6.49L145.07-5.39L144.40-5.18Q143.62-5.00 142.99-4.59Q142.37-4.18 141.77-3.40L141.77-3.40L137.33 2.21Q139.14 3.09 139.89 4.37L139.89 4.37L142.66 8.84Z"/>
    <linearGradient id="CUSTOM_SVGID_1894" gradientUnits="userSpaceOnUse" gradientTransform="matrix(1 0 0 1 -186.84 -20.057499999999997)"  x1="0" y1="0" x2="373.68" y2="40.114999999999995">
      <stop  offset="0" style="stop-color:#FFDA4E;stop-opacity:undefined"/><stop  offset="0.32" style="stop-color:#FBDE8A;stop-opacity:undefined"/><stop  offset="0.68" style="stop-color:#D8A517;stop-opacity:undefined"/><stop  offset="1" style="stop-color:#F6BE21;stop-opacity:undefined"/>
    </linearGradient>
  <path fill="url(#CUSTOM_SVGID_1895)" opacity="1" d="M147.84 2.35Q147.84-0.49 148.89-2.59Q149.93-4.68 151.90-5.82Q153.87-6.95 156.50-6.95L156.50-6.95Q159.13-6.95 161.08-5.82Q163.03-4.68 164.10-2.59Q165.16-0.49 165.16 2.35L165.16 2.35Q165.16 5.15 164.10 7.26Q163.03 9.38 161.08 10.51Q159.13 11.65 156.50 11.65L156.50 11.65Q153.87 11.65 151.90 10.51Q149.93 9.38 148.89 7.26Q147.84 5.15 147.84 2.35L147.84 2.35ZM161.44 2.45Q161.44 0.79 160.97-0.95Q160.51-2.69 159.43-3.90Q158.35-5.11 156.61-5.11L156.61-5.11Q155.12-5.11 153.96-4.17Q152.81-3.23 152.17-1.52Q151.53 0.18 151.53 2.38L151.53 2.38Q151.53 5.76 152.85 7.74Q154.16 9.73 156.40 9.73L156.40 9.73Q157.85 9.73 159.00 8.83Q160.16 7.92 160.80 6.27Q161.44 4.62 161.44 2.45L161.44 2.45Z"/>
    <linearGradient id="CUSTOM_SVGID_1895" gradientUnits="userSpaceOnUse" gradientTransform="matrix(1 0 0 1 -186.84 -20.057499999999997)"  x1="0" y1="0" x2="373.68" y2="40.114999999999995">
      <stop  offset="0" style="stop-color:#FFDA4E;stop-opacity:undefined"/><stop  offset="0.32" style="stop-color:#FBDE8A;stop-opacity:undefined"/><stop  offset="0.68" style="stop-color:#D8A517;stop-opacity:undefined"/><stop  offset="1" style="stop-color:#F6BE21;stop-opacity:undefined"/>
    </linearGradient>
  </g><g transform="matrix(-2.0746508412885056 0.1490767813608154 -0.09890671071054097 -1.3764510389317954 244.9198194268077 314.86579507528415)"  >
<linearGradient id="SVGID_22902" gradientUnits="userSpaceOnUse" gradientTransform="matrix(1 0 0 1 7.423359317032961 45.023359317032956)"  x1="0" y1="0" x2="85.35328136593408" y2="10.576640682967039">
<stop offset="0%" style="stop-color:#8f5e25;"/>
<stop offset="50%" style="stop-color:#fbf4a1;"/>
<stop offset="100%" style="stop-color:#8f5e25;"/>
</linearGradient>
<path style="stroke: none; stroke-width: 1; stroke-dasharray: none; stroke-linecap: butt; stroke-dashoffset: 0; stroke-linejoin: miter; stroke-miterlimit: 4; fill: url(#SVGID_22902); fill-rule: nonzero; opacity: 1;"  transform=" translate(-50.1, -50.311679658516475)" d="M 91.3 45.1 c -25.1 11.4 -57.5 11.4 -82.5 0 c -0.5 -0.2 -1.1 0 -1.3 0.5 c -0.2 0.5 0 1.1 0.5 1.3 c 12.8 5.8 27.4 8.7 42.1 8.7 s 29.3 -2.9 42.1 -8.7 c 0.5 -0.2 0.7 -0.8 0.5 -1.3 C 92.4 45.1 91.8 44.9 91.3 45.1 z" stroke-linecap="round" />
</g>
<g transform="matrix(1 0 0 1 250.25 341.29150000000004)" style=""  ><path fill="url(#CUSTOM_SVGID_1896)" opacity="1" d="M-76.03 14.95C-75.86 15.07-75.78 15.15-75.70 15.15C-75.45 15.07-75.28 14.95-75.07 14.82C-70.43 10.88-66.94 6.02-64.28 0.63C-63.08-1.86-61.92-4.35-60.67-6.80C-60.47-7.13-59.97-7.38-59.68-7.59C-59.59-7.22-59.39-6.80-59.34-6.34C-59.22-5.39-59.26-4.35-59.14-3.36C-58.60 1.04-58.06 5.44-57.68 9.92C-57.56 11.34-56.61 11.34-55.53 11.34C-54.53 11.34-54.49 10.42-54.49 9.72C-54.49 6.52-54.99 3.37-55.19 0.21C-55.49-4.06-55.44-15.10-57.73-15.10C-58.47-15.10-59.59-13.98-60.05-12.82C-61.88-9.00-63.66-5.14-65.45-1.24C-67.81 3.78-71.05 8.22-74.49 12.50C-75.07 13.24-75.53 14.16-76.03 14.95Z"/>
    <linearGradient id="CUSTOM_SVGID_1896" gradientUnits="userSpaceOnUse" gradientTransform="matrix(1 0 0 1 -101.7 -23.447499999999998)"  x1="0" y1="0" x2="203.4" y2="46.894999999999996">
      <stop  offset="0" style="stop-color:#FFDA4E;stop-opacity:undefined"/><stop  offset="0.32" style="stop-color:#FBDE8A;stop-opacity:undefined"/><stop  offset="0.68" style="stop-color:#D8A517;stop-opacity:undefined"/><stop  offset="1" style="stop-color:#F6BE21;stop-opacity:undefined"/>
    </linearGradient>
  <path fill="url(#CUSTOM_SVGID_1897)" opacity="1" d="M-52.41 7.27L-52.29 7.27C-52.04 9.22-51.79 10.84-50.38 10.84C-49.26 10.84-48.68 9.63-47.81 8.85C-47.52 8.64-47.06 8.47-46.73 8.31L-46.36 9.47C-45.98 10.59-45.53 12.66-44.49 12.66C-43.78 12.66-42.66 11.87-42.66 11.25C-42.66 10.75-43.16 9.80-43.16 8.80C-43.16 8.55-43.12 8.31-43.08 8.06C-42.45 5.11-41.75 2.21-41.00-0.74C-40.96-0.91-40.96-1.03-40.96-1.20C-40.96-1.94-41.46-2.82-42.45-2.82C-42.99-2.82-43.33-2.28-43.62-1.78C-45.24 1.13-46.77 3.99-48.47 6.89C-48.68 7.27-49.14 7.52-49.55 7.77C-49.68 7.27-50.05 6.85-50.05 6.31C-49.68 3.70-49.26 1.13-48.93-1.45C-48.85-1.78-48.72-2.11-48.72-2.44C-48.72-2.77-48.93-3.15-49.63-3.15C-50.38-3.15-50.75-2.65-50.88-1.94C-51.46 1.13-51.92 4.16-52.41 7.27Z"/>
    <linearGradient id="CUSTOM_SVGID_1897" gradientUnits="userSpaceOnUse" gradientTransform="matrix(1 0 0 1 -101.7 -23.447499999999998)"  x1="0" y1="0" x2="203.4" y2="46.894999999999996">
      <stop  offset="0" style="stop-color:#FFDA4E;stop-opacity:undefined"/><stop  offset="0.32" style="stop-color:#FBDE8A;stop-opacity:undefined"/><stop  offset="0.68" style="stop-color:#D8A517;stop-opacity:undefined"/><stop  offset="1" style="stop-color:#F6BE21;stop-opacity:undefined"/>
    </linearGradient>
  <path fill="url(#CUSTOM_SVGID_1898)" opacity="1" d="M-36.10 9.55C-32.91 4.28-30.59 2.00-29.38 2.00C-28.80 2.00-28.51 2.54-28.51 3.49C-28.51 5.15-29.84 8.93-29.84 10.80C-29.84 14.24-27.89 15.82-25.85 15.82C-24.98 15.82-24.61 15.44-24.61 15.03C-24.61 14.66-24.94 14.32-25.48 14.32C-26.89 14.32-27.43 11.29-27.43 10.51C-27.43 9.97-25.81 7.68-25.81 4.45C-25.81 2.25-27.47-2.98-29.96-2.98C-32.62-2.98-34.82 2.66-34.82 2.66C-35.03 3.04-35.40 3.28-35.73 3.62C-35.77 3.12-35.94 2.66-35.94 2.12C-35.94 1.00-35.73-0.16-35.73-1.41C-35.73-2.44-35.94-3.15-37.06-3.15C-38.76-3.15-38.64-0.95-38.84 0.92C-39.01 3.66-39.30 6.40-39.30 9.05C-39.30 10.01-39.01 11.04-38.10 11.04C-37.35 11.04-36.48 10.21-36.10 9.55Z"/>
    <linearGradient id="CUSTOM_SVGID_1898" gradientUnits="userSpaceOnUse" gradientTransform="matrix(1 0 0 1 -101.7 -23.447499999999998)"  x1="0" y1="0" x2="203.4" y2="46.894999999999996">
      <stop  offset="0" style="stop-color:#FFDA4E;stop-opacity:undefined"/><stop  offset="0.32" style="stop-color:#FBDE8A;stop-opacity:undefined"/><stop  offset="0.68" style="stop-color:#D8A517;stop-opacity:undefined"/><stop  offset="1" style="stop-color:#F6BE21;stop-opacity:undefined"/>
    </linearGradient>
  <path fill="url(#CUSTOM_SVGID_1899)" opacity="1" d="M-22.95 6.98C-22.95 10.51-21.29 12.41-18.51 12.41C-14.69 12.41-11.21 7.43-11.21 3.33C-11.21 1.96-11.50 0.59-12.08-0.78C-12.24-1.07-12.70-1.32-12.99-1.61C-13.65-1.28-13.99-1.07-13.99-0.45C-13.99 0.55-13.40 1.38-13.40 2.25C-13.40 4.53-14.86 7.27-16.10 9.43C-16.39 9.92-17.55 10.17-18.34 10.51C-18.68 9.88-19.38 9.26-19.38 8.64L-19.38 8.51C-18.80 5.86-18.22 3.12-15.60 0.92C-15.44 0.84-15.36 0.55-15.36 0.30C-15.36-0.45-16.27-0.78-17.22-0.78C-20.83-0.78-22.70 5.15-22.95 6.98Z"/>
    <linearGradient id="CUSTOM_SVGID_1899" gradientUnits="userSpaceOnUse" gradientTransform="matrix(1 0 0 1 -101.7 -23.447499999999998)"  x1="0" y1="0" x2="203.4" y2="46.894999999999996">
      <stop  offset="0" style="stop-color:#FFDA4E;stop-opacity:undefined"/><stop  offset="0.32" style="stop-color:#FBDE8A;stop-opacity:undefined"/><stop  offset="0.68" style="stop-color:#D8A517;stop-opacity:undefined"/><stop  offset="1" style="stop-color:#F6BE21;stop-opacity:undefined"/>
    </linearGradient>
  <path fill="url(#CUSTOM_SVGID_1900)" opacity="1" d="M-0.33-3.60C-0.37-3.69-0.37-3.85-0.46-3.98C-0.50-3.98-0.62-3.90-0.66-3.90C-1.16-4.14-1.95-4.31-2.03-4.64C-2.20-5.18-2.82-7.92-2.82-8.50L-2.82-8.63C-1.33-11.24 0.66-13.69 1.99-16.35C2.24-16.84 2.37-17.34 2.37-17.88C2.37-19.58 1.12-21.12-0.42-21.12C-1.58-21.12-2.57-20.16-3.20-18.46C-3.36-18.46-4.65-13.90-4.90-12.90C-6.68-5.56-8.88 2.04-9.13 9.63C-9.13 11.21-8.72 12.91-8.18 14.45C-7.80 15.15-6.47 15.61-5.77 15.61C-4.40 15.61-2.91 14.36-2.32 12.66C-0.87 8.39 0.46 3.99 0.79-0.62C0.91-2.19 2.32-2.73 3.73-3.90C3.82-3.94 3.90-4.14 3.90-4.27C3.90-4.52 3.65-4.60 3.40-4.60C3.36-4.60 3.28-4.56 3.24-4.56C2.03-4.23 0.87-3.98-0.33-3.60ZM-5.98 9.38L-4.36-1.03C-4.36-1.28-4.15-1.53-4.15-1.82C-4.15-2.03-4.19-2.24-4.19-2.40C-4.19-2.90-4.07-3.27-3.20-3.27C-2.03-3.27-0.79-2.15-0.79-0.99C-0.79-0.91-0.83-0.78-0.83-0.70C-1.45 3.49-2.41 7.93-4.03 11.58C-4.19 11.96-4.73 12.12-5.06 12.37C-5.48 11.75-5.77 11.50-5.77 10.63C-5.77 10.21-5.73 9.80-5.73 9.38ZM-1.37-15.27C-1.12-16.35-0.91-17.38-0.58-18.30C-0.46-18.63 0.08-18.88 0.50-19.17C0.75-18.75 1.24-18.21 1.24-17.88L1.24-17.84C0.87-16.80-0.04-14.23-0.87-14.23C-1.12-14.23-1.25-14.98-1.37-15.27Z"/>
    <linearGradient id="CUSTOM_SVGID_1900" gradientUnits="userSpaceOnUse" gradientTransform="matrix(1 0 0 1 -101.7 -23.447499999999998)"  x1="0" y1="0" x2="203.4" y2="46.894999999999996">
      <stop  offset="0" style="stop-color:#FFDA4E;stop-opacity:undefined"/><stop  offset="0.32" style="stop-color:#FBDE8A;stop-opacity:undefined"/><stop  offset="0.68" style="stop-color:#D8A517;stop-opacity:undefined"/><stop  offset="1" style="stop-color:#F6BE21;stop-opacity:undefined"/>
    </linearGradient>
  <path fill="url(#CUSTOM_SVGID_1901)" opacity="1" d="M3.90 7.27L4.03 7.27C4.27 9.22 4.52 10.84 5.93 10.84C7.05 10.84 7.64 9.63 8.51 8.85C8.80 8.64 9.25 8.47 9.59 8.31L9.96 9.47C10.33 10.59 10.79 12.66 11.83 12.66C12.53 12.66 13.65 11.87 13.65 11.25C13.65 10.75 13.16 9.80 13.16 8.80C13.16 8.55 13.20 8.31 13.24 8.06C13.86 5.11 14.57 2.21 15.31-0.74C15.35-0.91 15.35-1.03 15.35-1.20C15.35-1.94 14.86-2.82 13.86-2.82C13.32-2.82 12.99-2.28 12.70-1.78C11.08 1.13 9.54 3.99 7.84 6.89C7.64 7.27 7.18 7.52 6.76 7.77C6.64 7.27 6.27 6.85 6.27 6.31C6.64 3.70 7.05 1.13 7.39-1.45C7.47-1.78 7.59-2.11 7.59-2.44C7.59-2.77 7.39-3.15 6.68-3.15C5.93-3.15 5.56-2.65 5.44-1.94C4.86 1.13 4.40 4.16 3.90 7.27Z"/>
    <linearGradient id="CUSTOM_SVGID_1901" gradientUnits="userSpaceOnUse" gradientTransform="matrix(1 0 0 1 -101.7 -23.447499999999998)"  x1="0" y1="0" x2="203.4" y2="46.894999999999996">
      <stop  offset="0" style="stop-color:#FFDA4E;stop-opacity:undefined"/><stop  offset="0.32" style="stop-color:#FBDE8A;stop-opacity:undefined"/><stop  offset="0.68" style="stop-color:#D8A517;stop-opacity:undefined"/><stop  offset="1" style="stop-color:#F6BE21;stop-opacity:undefined"/>
    </linearGradient>
  <path fill="url(#CUSTOM_SVGID_1902)" opacity="1" d="M17.01 7.27C17.31 7.56 17.26 8.76 17.39 9.26C17.68 10.34 18.22 10.92 19.01 10.92C20.46 10.92 20.96 8.85 22.91 8.39C22.95 8.64 23.07 8.85 23.07 9.09C23.07 9.38 23.03 9.63 23.03 9.88C23.03 10.88 23.74 12.75 24.98 12.75C25.69 12.75 26.77 11.92 26.77 11.29C26.77 10.75 26.19 10.01 26.19 9.09C26.19 8.93 26.23 8.72 26.27 8.55C26.64 6.36 27.27 4.11 27.76 1.96C27.97 1.00 28.30 0.09 28.30-0.87C28.30-1.16 27.89-2.61 27.14-2.61C26.81-2.61 26.06-2.15 25.90-1.78C24.24 1.13 22.66 4.07 21.04 6.89C20.79 7.35 20.25 7.60 19.88 7.89C19.71 7.43 19.38 6.94 19.38 6.56L19.38 6.44C19.71 3.82 20.13 1.21 20.54-1.41C20.58-1.65 20.67-1.94 20.67-2.19C20.67-2.57 20.46-2.98 19.63-2.98C19.01-2.98 18.67-2.48 18.55-1.86C17.97 1.21 17.51 4.24 17.01 7.27ZM20.29-6.63C20.67-6.68 20.87-6.68 20.96-6.72C23.16-7.63 25.40-8.58 27.60-9.58C27.89-9.75 28.01-10.37 28.22-10.78C27.76-10.87 27.35-10.99 26.89-11.03C26.81-11.03 26.60-10.91 26.48-10.87C24.61-10.20 22.82-9.46 20.96-8.75C20.21-8.46 19.55-8.05 19.55-7.22C19.71-6.97 20.13-6.72 20.29-6.63Z"/>
    <linearGradient id="CUSTOM_SVGID_1902" gradientUnits="userSpaceOnUse" gradientTransform="matrix(1 0 0 1 -101.7 -23.447499999999998)"  x1="0" y1="0" x2="203.4" y2="46.894999999999996">
      <stop  offset="0" style="stop-color:#FFDA4E;stop-opacity:undefined"/><stop  offset="0.32" style="stop-color:#FBDE8A;stop-opacity:undefined"/><stop  offset="0.68" style="stop-color:#D8A517;stop-opacity:undefined"/><stop  offset="1" style="stop-color:#F6BE21;stop-opacity:undefined"/>
    </linearGradient>
  <path fill="url(#CUSTOM_SVGID_1903)" opacity="1" d=""/>
    <linearGradient id="CUSTOM_SVGID_1903" gradientUnits="userSpaceOnUse" gradientTransform="matrix(1 0 0 1 -101.7 -23.447499999999998)"  x1="0" y1="0" x2="203.4" y2="46.894999999999996">
      <stop  offset="0" style="stop-color:#FFDA4E;stop-opacity:undefined"/><stop  offset="0.32" style="stop-color:#FBDE8A;stop-opacity:undefined"/><stop  offset="0.68" style="stop-color:#D8A517;stop-opacity:undefined"/><stop  offset="1" style="stop-color:#F6BE21;stop-opacity:undefined"/>
    </linearGradient>
  <path fill="url(#CUSTOM_SVGID_1904)" opacity="1" d="M58.10-16.10C56.11-15.52 54.12-15.27 52.17-15.27C49.09-15.27 46.11-15.85 43.12-16.64C42.91-16.68 42.66-16.80 42.54-16.80C42.08-16.80 41.50-16.43 41.17-16.26L41.71-15.14C41.91-14.69 42.33-14.27 42.50-13.81C40.84-9.33 40.46-4.60 39.47 0.05C38.80 3.62 38.01 7.23 37.18 10.75C37.06 11.17 37.02 11.54 37.02 11.87C37.02 12.75 37.56 13.24 38.89 13.24C39.88 13.24 40.09 11.83 40.55 10.88C40.63 10.88 40.67 10.88 40.75 10.92L42.91-0.37C43.45-3.27 43.95-6.18 44.53-9.12L45.07-12.24C45.07-12.24 45.36-13.81 46.73-13.81C48.85-13.81 50.96-13.36 53.08-13.36C55.15-13.36 56.85-14.02 58.76-14.73C59.14-14.93 59.22-15.60 59.55-16.10C59.22-16.10 58.85-16.18 58.56-16.18C58.39-16.18 58.22-16.14 58.10-16.10Z"/>
    <linearGradient id="CUSTOM_SVGID_1904" gradientUnits="userSpaceOnUse" gradientTransform="matrix(1 0 0 1 -101.7 -23.447499999999998)"  x1="0" y1="0" x2="203.4" y2="46.894999999999996">
      <stop  offset="0" style="stop-color:#FFDA4E;stop-opacity:undefined"/><stop  offset="0.32" style="stop-color:#FBDE8A;stop-opacity:undefined"/><stop  offset="0.68" style="stop-color:#D8A517;stop-opacity:undefined"/><stop  offset="1" style="stop-color:#F6BE21;stop-opacity:undefined"/>
    </linearGradient>
  <path fill="url(#CUSTOM_SVGID_1905)" opacity="1" d="M55.90-1.36C54.86-0.95 53.66-0.66 52.83 0.05C50.42 1.79 48.76 4.90 48.76 7.97C48.76 9.14 49.59 10.09 50.80 10.09C52.17 10.09 53.58 8.85 53.87 8.85C54.24 8.85 54.45 12.25 56.07 12.25C57.68 12.25 57.77 5.48 58.47 1.79C58.51 1.54 58.51 1.29 58.51 1.08C58.51-0.37 57.68-1.20 55.90-1.36ZM55.90 2.16C54.66 4.03 53.04 7.48 51.58 7.48C51.09 7.48 50.92 6.81 50.92 6.60C50.92 5.44 52.66 2.95 53.83 1.42C53.95 1.21 54.41 1.13 54.82 1.13C55.36 1.13 55.40 1.33 55.90 2.16Z"/>
    <linearGradient id="CUSTOM_SVGID_1905" gradientUnits="userSpaceOnUse" gradientTransform="matrix(1 0 0 1 -101.7 -23.447499999999998)"  x1="0" y1="0" x2="203.4" y2="46.894999999999996">
      <stop  offset="0" style="stop-color:#FFDA4E;stop-opacity:undefined"/><stop  offset="0.32" style="stop-color:#FBDE8A;stop-opacity:undefined"/><stop  offset="0.68" style="stop-color:#D8A517;stop-opacity:undefined"/><stop  offset="1" style="stop-color:#F6BE21;stop-opacity:undefined"/>
    </linearGradient>
  <path fill="url(#CUSTOM_SVGID_1906)" opacity="1" d="M60.59 7.27C60.88 7.56 60.84 8.76 60.96 9.26C61.25 10.34 61.79 10.92 62.58 10.92C64.03 10.92 64.53 8.85 66.48 8.39C66.52 8.64 66.65 8.85 66.65 9.09C66.65 9.38 66.61 9.63 66.61 9.88C66.61 10.88 67.31 12.75 68.56 12.75C69.26 12.75 70.34 11.92 70.34 11.29C70.34 10.75 69.76 10.01 69.76 9.09C69.76 8.93 69.80 8.72 69.84 8.55C70.22 6.36 70.84 4.11 71.34 1.96C71.55 1.00 71.88 0.09 71.88-0.87C71.88-1.16 71.46-2.61 70.72-2.61C70.38-2.61 69.64-2.15 69.47-1.78C67.81 1.13 66.23 4.07 64.62 6.89C64.37 7.35 63.83 7.60 63.45 7.89C63.29 7.43 62.96 6.94 62.96 6.56L62.96 6.44C63.29 3.82 63.70 1.21 64.12-1.41C64.16-1.65 64.24-1.94 64.24-2.19C64.24-2.57 64.03-2.98 63.20-2.98C62.58-2.98 62.25-2.48 62.13-1.86C61.54 1.21 61.09 4.24 60.59 7.27ZM63.87-6.63C64.24-6.68 64.45-6.68 64.53-6.72C66.73-7.63 68.97-8.58 71.17-9.58C71.46-9.75 71.59-10.37 71.79-10.78C71.34-10.87 70.92-10.99 70.47-11.03C70.38-11.03 70.18-10.91 70.05-10.87C68.18-10.20 66.40-9.46 64.53-8.75C63.79-8.46 63.12-8.05 63.12-7.22C63.29-6.97 63.70-6.72 63.87-6.63Z"/>
    <linearGradient id="CUSTOM_SVGID_1906" gradientUnits="userSpaceOnUse" gradientTransform="matrix(1 0 0 1 -101.7 -23.447499999999998)"  x1="0" y1="0" x2="203.4" y2="46.894999999999996">
      <stop  offset="0" style="stop-color:#FFDA4E;stop-opacity:undefined"/><stop  offset="0.32" style="stop-color:#FBDE8A;stop-opacity:undefined"/><stop  offset="0.68" style="stop-color:#D8A517;stop-opacity:undefined"/><stop  offset="1" style="stop-color:#F6BE21;stop-opacity:undefined"/>
    </linearGradient>
  </g><g transform="matrix(4.620689655172414 0 0 1.9013591030571657 252.39999389648438 243.90689655172415)"  >
<linearGradient id="SVGID_22904" gradientUnits="userSpaceOnUse" gradientTransform="matrix(1 0 0 1 3295.85 44.919)"  x1="0" y1="0" x2="29" y2="16.928000000000004">
<stop offset="0%" style="stop-color:rgb(255,218,78);stop-opacity: 1"/>
<stop offset="32%" style="stop-color:rgb(251,222,138);stop-opacity: 1"/>
<stop offset="68%" style="stop-color:rgb(216,165,23);stop-opacity: 1"/>
<stop offset="100%" style="stop-color:rgb(246,190,33);stop-opacity: 1"/>
</linearGradient>
<path style="stroke: none; stroke-width: 0; stroke-dasharray: none; stroke-linecap: butt; stroke-dashoffset: 0; stroke-linejoin: round; stroke-miterlimit: 2; fill: url(#SVGID_22904); fill-rule: evenodd; opacity: 1;"  transform=" translate(-3310.35, -53.382999999999996)" d="M 3296.35 60.217 C 3297.43 60.217 3298.24 60.779 3299.03 61.211 C 3299.68 61.566 3300.32 61.847 3301.02 61.847 C 3301.73 61.847 3302.36 61.566 3303.01 61.211 C 3303.8 60.779 3304.61 60.217 3305.69 60.217 C 3306.77 60.217 3307.58 60.779 3308.36 61.211 C 3309.01 61.566 3309.65 61.847 3310.35 61.847 C 3311.06 61.847 3311.7 61.566 3312.35 61.211 C 3313.13 60.779 3313.94 60.217 3315.02 60.217 C 3316.1 60.217 3316.91 60.779 3317.7 61.211 C 3318.34 61.566 3318.98 61.847 3319.69 61.847 C 3320.39 61.847 3321.03 61.566 3321.68 61.211 C 3322.47 60.779 3323.27 60.217 3324.35 60.217 C 3324.63 60.217 3324.85 59.993 3324.85 59.717 C 3324.85 59.441 3324.63 59.217 3324.35 59.217 C 3323.28 59.217 3322.42 59.649 3321.62 60.096 C 3320.98 60.459 3320.38 60.847 3319.69 60.847 C 3318.99 60.847 3318.4 60.459 3317.75 60.096 C 3316.95 59.649 3316.09 59.217 3315.02 59.217 C 3313.95 59.217 3313.09 59.649 3312.29 60.096 C 3311.64 60.459 3311.05 60.847 3310.35 60.847 C 3309.66 60.847 3309.07 60.459 3308.42 60.096 C 3307.62 59.649 3306.76 59.217 3305.69 59.217 C 3304.61 59.217 3303.76 59.649 3302.96 60.096 C 3302.31 60.459 3301.72 60.847 3301.02 60.847 C 3300.33 60.847 3299.73 60.459 3299.08 60.096 C 3298.28 59.649 3297.43 59.217 3296.35 59.217 C 3296.08 59.217 3295.85 59.441 3295.85 59.717 C 3295.85 59.993 3296.08 60.217 3296.35 60.217 Z M 3296.35 55.451 C 3297.43 55.451 3298.24 56.013 3299.03 56.445 C 3299.68 56.8 3300.32 57.081 3301.02 57.081 C 3301.73 57.081 3302.36 56.8 3303.01 56.445 C 3303.8 56.013 3304.61 55.451 3305.69 55.451 C 3306.77 55.451 3307.58 56.013 3308.36 56.445 C 3309.01 56.8 3309.65 57.081 3310.35 57.081 C 3311.06 57.081 3311.7 56.8 3312.35 56.445 C 3313.13 56.013 3313.94 55.451 3315.02 55.451 C 3316.1 55.451 3316.91 56.013 3317.7 56.445 C 3318.34 56.8 3318.98 57.081 3319.69 57.081 C 3320.39 57.081 3321.03 56.8 3321.68 56.445 C 3322.47 56.013 3323.27 55.451 3324.35 55.451 C 3324.63 55.451 3324.85 55.227 3324.85 54.951 C 3324.85 54.675 3324.63 54.451 3324.35 54.451 C 3323.28 54.451 3322.42 54.883 3321.62 55.33 C 3320.98 55.693 3320.38 56.081 3319.69 56.081 C 3318.99 56.081 3318.4 55.693 3317.75 55.33 C 3316.95 54.883 3316.09 54.451 3315.02 54.451 C 3313.95 54.451 3313.09 54.883 3312.29 55.33 C 3311.64 55.693 3311.05 56.081 3310.35 56.081 C 3309.66 56.081 3309.07 55.693 3308.42 55.33 C 3307.62 54.883 3306.76 54.451 3305.69 54.451 C 3304.61 54.451 3303.76 54.883 3302.96 55.33 C 3302.31 55.693 3301.72 56.081 3301.02 56.081 C 3300.33 56.081 3299.73 55.693 3299.08 55.33 C 3298.28 54.883 3297.43 54.451 3296.35 54.451 C 3296.08 54.451 3295.85 54.675 3295.85 54.951 C 3295.85 55.227 3296.08 55.451 3296.35 55.451 Z M 3296.35 50.685 C 3297.43 50.685 3298.24 51.247 3299.03 51.679 C 3299.68 52.034 3300.32 52.315 3301.02 52.315 C 3301.73 52.315 3302.36 52.034 3303.01 51.679 C 3303.8 51.247 3304.61 50.685 3305.69 50.685 C 3306.77 50.685 3307.58 51.247 3308.36 51.679 C 3309.01 52.034 3309.65 52.315 3310.35 52.315 C 3311.06 52.315 3311.7 52.034 3312.35 51.679 C 3313.13 51.247 3313.94 50.685 3315.02 50.685 C 3316.1 50.685 3316.91 51.247 3317.7 51.679 C 3318.34 52.034 3318.98 52.315 3319.69 52.315 C 3320.39 52.315 3321.03 52.034 3321.68 51.679 C 3322.47 51.247 3323.27 50.685 3324.35 50.685 C 3324.63 50.685 3324.85 50.461 3324.85 50.185 C 3324.85 49.909 3324.63 49.685 3324.35 49.685 C 3323.28 49.685 3322.42 50.117 3321.62 50.564 C 3320.98 50.927 3320.38 51.315 3319.69 51.315 C 3318.99 51.315 3318.4 50.927 3317.75 50.564 C 3316.95 50.117 3316.09 49.685 3315.02 49.685 C 3313.95 49.685 3313.09 50.117 3312.29 50.564 C 3311.64 50.927 3311.05 51.315 3310.35 51.315 C 3309.66 51.315 3309.07 50.927 3308.42 50.564 C 3307.62 50.117 3306.76 49.685 3305.69 49.685 C 3304.61 49.685 3303.76 50.117 3302.96 50.564 C 3302.31 50.927 3301.72 51.315 3301.02 51.315 C 3300.33 51.315 3299.73 50.927 3299.08 50.564 C 3298.28 50.117 3297.43 49.685 3296.35 49.685 C 3296.08 49.685 3295.85 49.909 3295.85 50.185 C 3295.85 50.461 3296.08 50.685 3296.35 50.685 Z M 3296.35 45.919 C 3297.43 45.919 3298.24 46.481 3299.03 46.913 C 3299.68 47.268 3300.32 47.549 3301.02 47.549 C 3301.73 47.549 3302.36 47.268 3303.01 46.913 C 3303.8 46.481 3304.61 45.919 3305.69 45.919 C 3306.77 45.919 3307.58 46.481 3308.36 46.913 C 3309.01 47.268 3309.65 47.549 3310.35 47.549 C 3311.06 47.549 3311.7 47.268 3312.35 46.913 C 3313.13 46.481 3313.94 45.919 3315.02 45.919 C 3316.1 45.919 3316.91 46.481 3317.7 46.913 C 3318.34 47.268 3318.98 47.549 3319.69 47.549 C 3320.39 47.549 3321.03 47.268 3321.68 46.913 C 3322.47 46.481 3323.27 45.919 3324.35 45.919 C 3324.63 45.919 3324.85 45.695 3324.85 45.419 C 3324.85 45.143 3324.63 44.919 3324.35 44.919 C 3323.28 44.919 3322.42 45.351 3321.62 45.798 C 3320.98 46.161 3320.38 46.549 3319.69 46.549 C 3318.99 46.549 3318.4 46.161 3317.75 45.798 C 3316.95 45.351 3316.09 44.919 3315.02 44.919 C 3313.95 44.919 3313.09 45.351 3312.29 45.798 C 3311.64 46.161 3311.05 46.549 3310.35 46.549 C 3309.66 46.549 3309.07 46.161 3308.42 45.798 C 3307.62 45.351 3306.76 44.919 3305.69 44.919 C 3304.61 44.919 3303.76 45.351 3302.96 45.798 C 3302.31 46.161 3301.72 46.549 3301.02 46.549 C 3300.33 46.549 3299.73 46.161 3299.08 45.798 C 3298.28 45.351 3297.43 44.919 3296.35 44.919 C 3296.08 44.919 3295.85 45.143 3295.85 45.419 C 3295.85 45.695 3296.08 45.919 3296.35 45.919 Z" stroke-linecap="round" />
</g>
<g transform="matrix(1.046875 0 0 1.046875 216.5 196.11159161788498)"  >
<g style=""   >
		<g transform="matrix(1 0 0 1 -8.22235105 -3.910675000000005)"  >
<linearGradient id="SVGID_22874_22905" gradientUnits="userSpaceOnUse" gradientTransform="matrix(1 0 0 1 6.060607900000001 2.4467773999999913)"  x1="0" y1="0" x2="64" y2="64">
<stop offset="0%" style="stop-color:#FFDA4E;"/>
<stop offset="32%" style="stop-color:#FBDE8A;"/>
<stop offset="68%" style="stop-color:#D8A517;"/>
<stop offset="100%" style="stop-color:#F6BE21;"/>
</linearGradient>
<path style="stroke: none; stroke-width: 1; stroke-dasharray: none; stroke-linecap: butt; stroke-dashoffset: 0; stroke-linejoin: miter; stroke-miterlimit: 4; fill: url(#SVGID_22874_22905); fill-rule: nonzero; opacity: 1;"  transform=" translate(-23.77764895, -28.089324999999995)" d="M 12.7279053 39.2592773 c 0 2.980957 2.425293 5.40625 5.40625 5.40625 c 1.1123657 0 2.1817017 -0.3355713 3.0905151 -0.9695435 c 0.0448608 -0.031311 0.0947876 -0.0482178 0.1448364 -0.0631104 V 38.883606 c 0 -3.5571899 -2.4702759 -5.4502563 -3.5258789 -6.2593384 c 0 0 -0.4419556 -0.350647 -0.0968628 -0.7758789 c 0.267334 -0.3295898 0.7063599 -0.0195312 0.7063599 -0.0195312 c 0.7147217 0.5477905 2.0109253 1.546814 2.9163818 3.1573486 V 30.473877 c 0 -0.2768555 0.223999 -0.5009155 0.5009155 -0.5009155 c 0.2768555 0 0.5008545 0.2240601 0.5008545 0.5009155 v 23.2579956 c 0.6481934 -0.3728638 1.3804321 -0.605835 2.15625 -0.7019043 v -9.7943726 c -0.0015259 -0.0239868 -0.0018921 -0.0467529 0 -0.0706787 v -12.69104 c 0 -0.2768555 0.2240601 -0.5009155 0.5009155 -0.5009155 s 0.5009155 0.2240601 0.5009155 0.5009155 v 7.7247925 c 0.8786621 -1.4868774 2.1409912 -2.6374512 2.9731445 -3.1002197 c 0.2396851 -0.1311035 0.5458984 -0.0479736 0.6818848 0.1947021 c 0.1340332 0.2416382 0.046936 0.546875 -0.1947021 0.6818848 c -1.1691284 0.6495972 -3.4603271 3.0151978 -3.4603271 5.5402832 v 1.4770508 c 1.1244507 1.0766602 2.5897217 1.6731567 4.1549683 1.6731567 c 3.319458 0 6.0206299 -2.7001953 6.0206299 -6.0196533 c 0 -0.7190552 -0.1262207 -1.4234619 -0.3737793 -2.0936279 c -0.0596313 -0.1604614 -0.0332642 -0.3404541 0.0704956 -0.4764404 c 0.1036987 -0.1369629 0.2749023 -0.208374 0.43927 -0.1966553 c 0.1203003 0.0097656 0.2416382 0.0136719 0.3648682 0.0136719 c 2.4487915 0 4.4406738 -1.9928589 4.4406738 -4.4415894 c 0 -1.5975952 -0.8648682 -3.0797729 -2.2579956 -3.8682861 c -0.1633911 -0.0929565 -0.2612305 -0.269043 -0.2543945 -0.4569092 c 0.0078735 -0.1878052 0.1203613 -0.3551025 0.2905884 -0.4343872 c 1.8646851 -0.8618774 3.0700073 -2.7471313 3.0700073 -4.8026123 c 0 -2.3518677 -1.578064 -4.4435425 -3.8370361 -5.0872803 c -0.154541 -0.0440063 -0.2788086 -0.1594849 -0.3336182 -0.3101196 c -0.0547485 -0.1516724 -0.0342407 -0.3199463 0.0567627 -0.4529419 c 0.6633301 -0.9763794 1.0145264 -2.118103 1.0145264 -3.3018799 c 0 -3.2392578 -2.6346436 -5.8739014 -5.8739014 -5.8739014 c -0.9215698 0 -1.8049927 0.2073975 -2.6238403 0.6173706 c -0.1223145 0.0606079 -0.2651367 0.069458 -0.392334 0.0234375 c -0.1291504 -0.0459595 -0.2328491 -0.1428223 -0.2885742 -0.2670898 c -1.3012085 -2.9095459 -4.1989746 -4.789856 -7.3834839 -4.789856 c -4.4562378 0 -8.0819092 3.6256714 -8.0819092 8.0819702 c 0 0.2836914 0.0146484 0.5644531 0.0430298 0.840332 c 0.0146484 0.1419067 -0.031311 0.2817993 -0.1262207 0.3874512 s -0.2299194 0.1653442 -0.3717651 0.1653442 c -4.0101318 0 -7.2357178 3.2255249 -7.2357178 7.1906738 c 0 2.1004639 0.9157104 4.0903931 2.5113525 5.4591064 c 0.1174316 0.100769 0.1820068 0.2504272 0.1741943 0.4050293 c -0.006897 0.154541 -0.0861206 0.2974243 -0.2133179 0.3864136 c -1.5476685 1.0820312 -2.472229 2.8557739 -2.472229 4.7429199 c 0 3.1913452 2.59552 5.7868042 5.7858276 5.7868042 c 0.3668823 0 0.7337646 -0.0342407 1.0918579 -0.1017456 c 0.1975708 -0.038147 0.3903198 0.0430908 0.5028076 0.2034912 c 0.1125488 0.1604614 0.1213379 0.3727417 0.022522 0.5419922 C 12.9822998 37.3583984 12.7279053 38.2995605 12.7279053 39.2592773 z" stroke-linecap="round" />
</g>
		<g transform="matrix(1 0 0 1 0.8969115000000087 25.70761114999999)"  >
<linearGradient id="SVGID_22875_22906" gradientUnits="userSpaceOnUse" gradientTransform="matrix(1 0 0 1 14.05493150000001 53.968444899999994)"  x1="0" y1="0" x2="64" y2="64">
<stop offset="0%" style="stop-color:#FFDA4E;"/>
<stop offset="32%" style="stop-color:#FBDE8A;"/>
<stop offset="68%" style="stop-color:#D8A517;"/>
<stop offset="100%" style="stop-color:#F6BE21;"/>
</linearGradient>
<path style="stroke: none; stroke-width: 1; stroke-dasharray: none; stroke-linecap: butt; stroke-dashoffset: 0; stroke-linejoin: miter; stroke-miterlimit: 4; fill: url(#SVGID_22875_22906); fill-rule: nonzero; opacity: 1;"  transform=" translate(-32.89691150000001, -57.70761114999999)" d="M 47.4370117 57.6919556 c -1.0830078 0 -2.1219482 0.3991699 -2.9251709 1.125061 c -0.1056519 0.0958862 -0.2474976 0.1408691 -0.3913574 0.1262207 c -0.1428223 -0.0166626 -0.2719727 -0.0929565 -0.354126 -0.2103271 c -0.9157104 -1.3060913 -2.4125977 -2.0858154 -4.0043335 -2.0858154 c -1.3178101 0 -2.5543823 0.5175171 -3.4798584 1.4567261 c -0.1047363 0.1046753 -0.2495117 0.1585083 -0.3991699 0.1467285 c -0.1487427 -0.0126953 -0.2837524 -0.0899658 -0.3688354 -0.2122803 c -0.6437378 -0.9215698 -1.7003174 -1.4724121 -2.8244629 -1.4724121 c -0.7973022 0 -1.5740967 0.2778931 -2.1884766 0.7836914 c -0.1271973 0.1036987 -0.2964478 0.138916 -0.4520264 0.0948486 c -0.1574707 -0.0440063 -0.2836914 -0.161377 -0.338501 -0.3150024 c -0.6681519 -1.8911133 -2.4644165 -3.1609497 -4.4709473 -3.1609497 c -2.5455933 0 -4.6265259 1.9899292 -4.7370605 4.5306396 c -0.0087891 0.1809692 -0.1124878 0.3433838 -0.2739258 0.4245605 c -0.161438 0.0831909 -0.3531494 0.0704346 -0.5048218 -0.0293579 c -0.6046143 -0.4020996 -1.3099976 -0.6153564 -2.0378418 -0.6153564 c -1.854187 0 -3.3773193 1.3818359 -3.6311646 3.1678467 h 37.68396 C 51.4399414 59.3303223 49.6347046 57.6919556 47.4370117 57.6919556 z" stroke-linecap="round" />
</g>
		<g transform="matrix(1 0 0 1 14.059021049999991 4.045471250000006)"  >
<linearGradient id="SVGID_22876_22907" gradientUnits="userSpaceOnUse" gradientTransform="matrix(1 0 0 1 34.17864989999999 14.3588867)"  x1="0" y1="0" x2="64" y2="64">
<stop offset="0%" style="stop-color:#FFDA4E;"/>
<stop offset="32%" style="stop-color:#FBDE8A;"/>
<stop offset="68%" style="stop-color:#D8A517;"/>
<stop offset="100%" style="stop-color:#F6BE21;"/>
</linearGradient>
<path style="stroke: none; stroke-width: 1; stroke-dasharray: none; stroke-linecap: butt; stroke-dashoffset: 0; stroke-linejoin: miter; stroke-miterlimit: 4; fill: url(#SVGID_22876_22907); fill-rule: nonzero; opacity: 1;"  transform=" translate(-46.05902104999999, -36.045471250000006)" d="M 55.9700317 32.3688965 c -0.130127 -0.0880127 -0.2123413 -0.2328491 -0.2191772 -0.3903198 c -0.0078125 -0.1575317 0.0587158 -0.3101196 0.1809692 -0.4099121 c 1.2757568 -1.0566406 2.0075684 -2.5906372 2.0075684 -4.2078247 c 0 -3.0601807 -2.586731 -5.5490723 -5.7662964 -5.5490723 c -0.1428223 0 -0.2973633 -0.0606689 -0.3922729 -0.1663208 c -0.0949097 -0.1066284 -0.1594849 -0.2474976 -0.1438599 -0.3893433 c 0.0234985 -0.2133179 0.0352173 -0.4285278 0.0352173 -0.647644 c 0 -3.4456787 -2.9134521 -6.2495728 -6.4940796 -6.2495728 c -2.0671997 0 -3.9691162 0.9387817 -5.194397 2.5182495 c 1.5386963 1.166626 2.5127563 3.0050659 2.5127563 5.0119019 c 0 2.1572266 -1.116272 4.1569214 -2.9036865 5.3025513 c 1.2845459 1.024292 2.055481 2.5906372 2.055481 4.2596436 c 0 2.9075928 -2.2922363 5.2907715 -5.1635742 5.4365845 c 0.1477051 0.5713501 0.2220459 1.1602783 0.2220459 1.7580566 c 0 2.1630249 -0.9846802 4.0996094 -2.5280762 5.3886719 c 0.5986328 1.9366455 2.4758301 3.319397 4.6011353 3.319397 c 1.2406616 0 2.3967896 -0.4592896 3.2930908 -1.2738647 v -1.0975952 c 0 -1.8490601 -1.7727661 -3.7283936 -2.7647705 -4.2615967 c -0.2435913 -0.1311035 -0.3355713 -0.4343872 -0.2044678 -0.6779785 s 0.4363403 -0.3345947 0.6779785 -0.2044678 c 0.6387329 0.3427734 1.5765991 1.166626 2.2912598 2.2324829 v -5.7730713 c 0 -0.2768555 0.223999 -0.5008545 0.5009155 -0.5008545 c 0.2768555 0 0.5008545 0.223999 0.5008545 0.5008545 v 9.9855347 c 0.0011597 0.0205078 0.0013428 0.039917 0 0.0603638 v 10.3335571 c 0.4356689 0.296936 0.8377075 0.6459961 1.1837769 1.0547485 c 0.1234131 -0.0908203 0.2584229 -0.1613159 0.3884277 -0.2407837 V 36.2978516 c 0 -0.2768555 0.223999 -0.5008545 0.5009155 -0.5008545 c 0.2768555 0 0.5008545 0.223999 0.5008545 0.5008545 v 3.2352905 c 0.7337646 -1.1286621 1.6881104 -1.8561401 2.2355347 -2.2608643 c 0.2230225 -0.1633911 0.5449219 -0.1252441 0.7102661 0.0978394 c 0.1643066 0.2221069 0.1271362 0.5283203 -0.0949097 0.6936646 l -0.0195923 0.0136719 c -0.847229 0.6271362 -2.8312988 2.0946045 -2.8312988 4.8348999 v 3.6627197 c 0.0236206 0.0108643 0.0491943 0.0145874 0.0714722 0.02948 c 0.7268677 0.4901733 1.5819092 0.7493896 2.4732056 0.7493896 c 2.3782959 0 4.312439 -1.8598022 4.312439 -4.1461182 c 0 -0.7318115 -0.2015381 -1.4518433 -0.5820923 -2.0819092 c -0.1017456 -0.1692505 -0.0958862 -0.3815308 0.0166016 -0.5439453 c 0.1125488 -0.1624146 0.3121338 -0.2435913 0.5028687 -0.2073975 c 0.2827759 0.0518188 0.5762329 0.0782471 0.8736572 0.0782471 c 2.5485229 0 4.6226196 -1.9938354 4.6226196 -4.444519 C 57.9393921 34.5623169 57.2036743 33.2024536 55.9700317 32.3688965 z" stroke-linecap="round" />
</g>
</g>
</g>
<g transform="matrix(0.75 0 0 0.75 277.3999938964844 199)"  >
<g style=""   >
		<g transform="matrix(1.3333333333333335 0 0 1.3333333333333335 7.127733333333339 31.09173333333335)"  >
<linearGradient id="SVGID_22877_22908" gradientUnits="userSpaceOnUse" gradientTransform="matrix(1 0 0 1 54.254 72.227)"  x1="0" y1="0" x2="133.33333333333334" y2="133.33333333333334">
<stop offset="0%" style="stop-color:#FFDA4E;"/>
<stop offset="32%" style="stop-color:#FBDE8A;"/>
<stop offset="68%" style="stop-color:#D8A517;"/>
<stop offset="100%" style="stop-color:#F6BE21;"/>
</linearGradient>
<path style="stroke: none; stroke-width: 1; stroke-dasharray: none; stroke-linecap: butt; stroke-dashoffset: 0; stroke-linejoin: miter; stroke-miterlimit: 4; fill: url(#SVGID_22877_22908); fill-rule: nonzero; opacity: 1;"  transform=" translate(-55.3458, -73.31880000000001)" d="m 54.254 72.227 h 2.1836 v 2.1836 h -2.1836 z" stroke-linecap="round" />
</g>
		<g transform="matrix(1.3333333333333335 0 0 1.3333333333333335 7.127733333333339 27.13306666666665)"  >
<linearGradient id="SVGID_22878_22909" gradientUnits="userSpaceOnUse" gradientTransform="matrix(1 0 0 1 54.254 69.25799999999998)"  x1="0" y1="0" x2="133.33333333333334" y2="133.33333333333334">
<stop offset="0%" style="stop-color:#FFDA4E;"/>
<stop offset="32%" style="stop-color:#FBDE8A;"/>
<stop offset="68%" style="stop-color:#D8A517;"/>
<stop offset="100%" style="stop-color:#F6BE21;"/>
</linearGradient>
<path style="stroke: none; stroke-width: 1; stroke-dasharray: none; stroke-linecap: butt; stroke-dashoffset: 0; stroke-linejoin: miter; stroke-miterlimit: 4; fill: url(#SVGID_22878_22909); fill-rule: nonzero; opacity: 1;"  transform=" translate(-55.3458, -70.34979999999999)" d="m 54.254 69.258 h 2.1836 v 2.1836 h -2.1836 z" stroke-linecap="round" />
</g>
		<g transform="matrix(1.3333333333333335 0 0 1.3333333333333335 -17.383412 20.495340000000002)"  >
<linearGradient id="SVGID_22879_22910" gradientUnits="userSpaceOnUse" gradientTransform="matrix(1 0 0 1 12.917999999999996 53.110005)"  x1="0" y1="0" x2="133.33333333333334" y2="133.33333333333334">
<stop offset="0%" style="stop-color:#FFDA4E;"/>
<stop offset="32%" style="stop-color:#FBDE8A;"/>
<stop offset="68%" style="stop-color:#D8A517;"/>
<stop offset="100%" style="stop-color:#F6BE21;"/>
</linearGradient>
<path style="stroke: none; stroke-width: 1; stroke-dasharray: none; stroke-linecap: butt; stroke-dashoffset: 0; stroke-linejoin: miter; stroke-miterlimit: 4; fill: url(#SVGID_22879_22910); fill-rule: nonzero; opacity: 1;"  transform=" translate(-36.962441, -65.371505)" d="m 12.918 64.496 v 13.125 h 9.25 v -11.953 l -0.38281 0.17969 h 0.003906 c -0.19531 0.089844 -0.42578 0.007813 -0.51953 -0.18359 l -0.875 -1.8438 c -0.042969 -0.10156 -0.042969 -0.21484 0 -0.3125 c 0.035157 -0.097656 0.10938 -0.17969 0.20312 -0.22266 l 16.562 -7.7539 c 0.10547 -0.046875 0.22266 -0.046875 0.32812 0 l 16.562 7.7539 c 0.09375 0.042969 0.16406 0.125 0.19922 0.22266 c 0.042969 0.097657 0.042969 0.21094 0 0.3125 l -0.87891 1.8438 c -0.042969 0.09375 -0.12109 0.16406 -0.21875 0.19922 c -0.097656 0.035157 -0.20703 0.027344 -0.30078 -0.015625 l -0.38281 -0.17969 v 11.965 h 8.5352 l 0.003906 -13.5 l -23.66 -11.023 z m 7.8359 3.9805 h 0.003906 c 0.10156 0 0.20313 0.042969 0.27344 0.11719 c 0.074219 0.070312 0.11719 0.17188 0.11719 0.27344 v 5.9375 c 0 0.10547 -0.042969 0.20312 -0.11719 0.27734 c -0.070312 0.074219 -0.17188 0.11328 -0.27344 0.11328 h -5.9375 c -0.21875 0 -0.39062 -0.17187 -0.39062 -0.39062 v -5.9375 c 0 -0.21484 0.17187 -0.39063 0.39062 -0.39063 h 5.9375 z m 39.039 0 h 0.003906 c 0.10547 0 0.20312 0.042969 0.27734 0.11719 c 0.070312 0.070312 0.11328 0.17188 0.11328 0.27344 v 5.9375 c 0 0.10547 -0.042969 0.20312 -0.11328 0.27734 c -0.074219 0.074219 -0.17188 0.11328 -0.27734 0.11328 h -5.9375 c -0.21484 0 -0.39062 -0.17187 -0.39062 -0.39062 v -5.9375 c 0 -0.21484 0.17578 -0.39063 0.39062 -0.39063 h 5.9375 z" stroke-linecap="round" />
</g>
		<g transform="matrix(1.3333333333333335 0 0 1.3333333333333335 11.086399999999998 31.09173333333335)"  >
<linearGradient id="SVGID_22880_22911" gradientUnits="userSpaceOnUse" gradientTransform="matrix(1 0 0 1 57.223 72.227)"  x1="0" y1="0" x2="133.33333333333334" y2="133.33333333333334">
<stop offset="0%" style="stop-color:#FFDA4E;"/>
<stop offset="32%" style="stop-color:#FBDE8A;"/>
<stop offset="68%" style="stop-color:#D8A517;"/>
<stop offset="100%" style="stop-color:#F6BE21;"/>
</linearGradient>
<path style="stroke: none; stroke-width: 1; stroke-dasharray: none; stroke-linecap: butt; stroke-dashoffset: 0; stroke-linejoin: miter; stroke-miterlimit: 4; fill: url(#SVGID_22880_22911); fill-rule: nonzero; opacity: 1;"  transform=" translate(-58.3148, -73.31880000000001)" d="m 57.223 72.227 h 2.1836 v 2.1836 h -2.1836 z" stroke-linecap="round" />
</g>
		<g transform="matrix(1.3333333333333335 0 0 1.3333333333333335 11.086399999999998 27.13306666666665)"  >
<linearGradient id="SVGID_22881_22912" gradientUnits="userSpaceOnUse" gradientTransform="matrix(1 0 0 1 57.223 69.25799999999998)"  x1="0" y1="0" x2="133.33333333333334" y2="133.33333333333334">
<stop offset="0%" style="stop-color:#FFDA4E;"/>
<stop offset="32%" style="stop-color:#FBDE8A;"/>
<stop offset="68%" style="stop-color:#D8A517;"/>
<stop offset="100%" style="stop-color:#F6BE21;"/>
</linearGradient>
<path style="stroke: none; stroke-width: 1; stroke-dasharray: none; stroke-linecap: butt; stroke-dashoffset: 0; stroke-linejoin: miter; stroke-miterlimit: 4; fill: url(#SVGID_22881_22912); fill-rule: nonzero; opacity: 1;"  transform=" translate(-58.3148, -70.34979999999999)" d="m 57.223 69.258 h 2.1836 v 2.1836 h -2.1836 z" stroke-linecap="round" />
</g>
		<g transform="matrix(1.3333333333333335 0 0 1.3333333333333335 -44.9296 27.13306666666665)"  >
<linearGradient id="SVGID_22882_22913" gradientUnits="userSpaceOnUse" gradientTransform="matrix(1 0 0 1 15.211000000000002 69.25799999999998)"  x1="0" y1="0" x2="133.33333333333334" y2="133.33333333333334">
<stop offset="0%" style="stop-color:#FFDA4E;"/>
<stop offset="32%" style="stop-color:#FBDE8A;"/>
<stop offset="68%" style="stop-color:#D8A517;"/>
<stop offset="100%" style="stop-color:#F6BE21;"/>
</linearGradient>
<path style="stroke: none; stroke-width: 1; stroke-dasharray: none; stroke-linecap: butt; stroke-dashoffset: 0; stroke-linejoin: miter; stroke-miterlimit: 4; fill: url(#SVGID_22882_22913); fill-rule: nonzero; opacity: 1;"  transform=" translate(-16.3028, -70.34979999999999)" d="m 15.211 69.258 h 2.1836 v 2.1836 h -2.1836 z" stroke-linecap="round" />
</g>
		<g transform="matrix(1.3333333333333335 0 0 1.3333333333333335 -44.9296 31.09173333333335)"  >
<linearGradient id="SVGID_22883_22914" gradientUnits="userSpaceOnUse" gradientTransform="matrix(1 0 0 1 15.211000000000002 72.227)"  x1="0" y1="0" x2="133.33333333333334" y2="133.33333333333334">
<stop offset="0%" style="stop-color:#FFDA4E;"/>
<stop offset="32%" style="stop-color:#FBDE8A;"/>
<stop offset="68%" style="stop-color:#D8A517;"/>
<stop offset="100%" style="stop-color:#F6BE21;"/>
</linearGradient>
<path style="stroke: none; stroke-width: 1; stroke-dasharray: none; stroke-linecap: butt; stroke-dashoffset: 0; stroke-linejoin: miter; stroke-miterlimit: 4; fill: url(#SVGID_22883_22914); fill-rule: nonzero; opacity: 1;"  transform=" translate(-16.3028, -73.31880000000001)" d="m 15.211 72.227 h 2.1836 v 2.1836 h -2.1836 z" stroke-linecap="round" />
</g>
		<g transform="matrix(1.3333333333333335 0 0 1.3333333333333335 -40.970933333333335 27.13306666666665)"  >
<linearGradient id="SVGID_22884_22915" gradientUnits="userSpaceOnUse" gradientTransform="matrix(1 0 0 1 18.18 69.25799999999998)"  x1="0" y1="0" x2="133.33333333333334" y2="133.33333333333334">
<stop offset="0%" style="stop-color:#FFDA4E;"/>
<stop offset="32%" style="stop-color:#FBDE8A;"/>
<stop offset="68%" style="stop-color:#D8A517;"/>
<stop offset="100%" style="stop-color:#F6BE21;"/>
</linearGradient>
<path style="stroke: none; stroke-width: 1; stroke-dasharray: none; stroke-linecap: butt; stroke-dashoffset: 0; stroke-linejoin: miter; stroke-miterlimit: 4; fill: url(#SVGID_22884_22915); fill-rule: nonzero; opacity: 1;"  transform=" translate(-19.2718, -70.34979999999999)" d="m 18.18 69.258 h 2.1836 v 2.1836 h -2.1836 z" stroke-linecap="round" />
</g>
		<g transform="matrix(1.3333333333333335 0 0 1.3333333333333335 -40.970933333333335 31.09173333333335)"  >
<linearGradient id="SVGID_22885_22916" gradientUnits="userSpaceOnUse" gradientTransform="matrix(1 0 0 1 18.18 72.227)"  x1="0" y1="0" x2="133.33333333333334" y2="133.33333333333334">
<stop offset="0%" style="stop-color:#FFDA4E;"/>
<stop offset="32%" style="stop-color:#FBDE8A;"/>
<stop offset="68%" style="stop-color:#D8A517;"/>
<stop offset="100%" style="stop-color:#F6BE21;"/>
</linearGradient>
<path style="stroke: none; stroke-width: 1; stroke-dasharray: none; stroke-linecap: butt; stroke-dashoffset: 0; stroke-linejoin: miter; stroke-miterlimit: 4; fill: url(#SVGID_22885_22916); fill-rule: nonzero; opacity: 1;"  transform=" translate(-19.2718, -73.31880000000001)" d="m 18.18 72.227 h 2.1836 v 2.1836 h -2.1836 z" stroke-linecap="round" />
</g>
		<g transform="matrix(1.3333333333333335 0 0 1.3333333333333335 -6.972106666666665 -15.101800000000003)"  >
<linearGradient id="SVGID_22886_22917" gradientUnits="userSpaceOnUse" gradientTransform="matrix(1 0 0 1 25.811839999999997 29.374599999999997)"  x1="0" y1="0" x2="133.33333333333334" y2="133.33333333333334">
<stop offset="0%" style="stop-color:#FFDA4E;"/>
<stop offset="32%" style="stop-color:#FBDE8A;"/>
<stop offset="68%" style="stop-color:#D8A517;"/>
<stop offset="100%" style="stop-color:#F6BE21;"/>
</linearGradient>
<path style="stroke: none; stroke-width: 1; stroke-dasharray: none; stroke-linecap: butt; stroke-dashoffset: 0; stroke-linejoin: miter; stroke-miterlimit: 4; fill: url(#SVGID_22886_22917); fill-rule: nonzero; opacity: 1;"  transform=" translate(-44.77092, -38.673649999999995)" d="m 63.73 30.523 l -0.53516 -1.1484 l -37.383 17.434 l 0.54297 1.1641 l 2.5977 -1.2109 c 0.019531 0 0 -0.046875 0.035156 -0.054688 l 32.223 -15 z" stroke-linecap="round" />
</g>
		<g transform="matrix(1.3333333333333335 0 0 1.3333333333333335 -26.708666666666666 0.35483333333334866)"  >
<linearGradient id="SVGID_22887_22918" gradientUnits="userSpaceOnUse" gradientTransform="matrix(1 0 0 1 29.531 46.938)"  x1="0" y1="0" x2="133.33333333333334" y2="133.33333333333334">
<stop offset="0%" style="stop-color:#FFDA4E;"/>
<stop offset="32%" style="stop-color:#FBDE8A;"/>
<stop offset="68%" style="stop-color:#D8A517;"/>
<stop offset="100%" style="stop-color:#F6BE21;"/>
</linearGradient>
<path style="stroke: none; stroke-width: 1; stroke-dasharray: none; stroke-linecap: butt; stroke-dashoffset: 0; stroke-linejoin: miter; stroke-miterlimit: 4; fill: url(#SVGID_22887_22918); fill-rule: nonzero; opacity: 1;"  transform=" translate(-29.9685, -50.266125)" d="m 30.406 53.188 v -6.25 l -0.875 0.40625 v 6.25 z" stroke-linecap="round" />
</g>
		<g transform="matrix(1.3333333333333335 0 0 1.3333333333333335 -16.913466666666658 10.416866666666683)"  >
<linearGradient id="SVGID_22888_22919" gradientUnits="userSpaceOnUse" gradientTransform="matrix(1 0 0 1 9.863800000000008 50.84)"  x1="0" y1="0" x2="133.33333333333334" y2="133.33333333333334">
<stop offset="0%" style="stop-color:#FFDA4E;"/>
<stop offset="32%" style="stop-color:#FBDE8A;"/>
<stop offset="68%" style="stop-color:#D8A517;"/>
<stop offset="100%" style="stop-color:#F6BE21;"/>
</linearGradient>
<path style="stroke: none; stroke-width: 1; stroke-dasharray: none; stroke-linecap: butt; stroke-dashoffset: 0; stroke-linejoin: miter; stroke-miterlimit: 4; fill: url(#SVGID_22888_22919); fill-rule: nonzero; opacity: 1;"  transform=" translate(-37.31490000000001, -57.812650000000005)" d="m 64.766 63.652 l -27.457 -12.812 l -7.9922 3.75 l -19.453 9.0586 l 0.53906 1.1367 l 26.742 -12.461 l 0.003907 0.003906 c 0.11328 -0.050781 0.24219 -0.050781 0.35937 0 l 24.031 11.188 l 2.6953 1.25 z" stroke-linecap="round" />
</g>
		<g transform="matrix(1.3333333333333335 0 0 1.3333333333333335 -16.91725333333334 14.210733333333343)"  >
<linearGradient id="SVGID_22889_22920" gradientUnits="userSpaceOnUse" gradientTransform="matrix(1 0 0 1 21.273059999999994 56.33970000000001)"  x1="0" y1="0" x2="133.33333333333334" y2="133.33333333333334">
<stop offset="0%" style="stop-color:#FFDA4E;"/>
<stop offset="32%" style="stop-color:#FBDE8A;"/>
<stop offset="68%" style="stop-color:#D8A517;"/>
<stop offset="100%" style="stop-color:#F6BE21;"/>
</linearGradient>
<path style="stroke: none; stroke-width: 1; stroke-dasharray: none; stroke-linecap: butt; stroke-dashoffset: 0; stroke-linejoin: miter; stroke-miterlimit: 4; fill: url(#SVGID_22889_22920); fill-rule: nonzero; opacity: 1;"  transform=" translate(-37.312059999999995, -60.65805)" d="m 37.5 57.828 l 15.312 7.1484 l 0.53906 -1.1367 l -16.039 -7.5 l -16.039 7.5 l 0.53906 1.1367 l 15.336 -7.1484 c 0.11328 -0.046875 0.23828 -0.046875 0.35156 0 z" stroke-linecap="round" />
</g>
		<g transform="matrix(1.3333333333333335 0 0 1.3333333333333335 -21.049199999999995 30.36180000000001)"  >
<linearGradient id="SVGID_22890_22921" gradientUnits="userSpaceOnUse" gradientTransform="matrix(1 0 0 1 31.507999999999996 67.91)"  x1="0" y1="0" x2="133.33333333333334" y2="133.33333333333334">
<stop offset="0%" style="stop-color:#FFDA4E;"/>
<stop offset="32%" style="stop-color:#FBDE8A;"/>
<stop offset="68%" style="stop-color:#D8A517;"/>
<stop offset="100%" style="stop-color:#F6BE21;"/>
</linearGradient>
<path style="stroke: none; stroke-width: 1; stroke-dasharray: none; stroke-linecap: butt; stroke-dashoffset: 0; stroke-linejoin: miter; stroke-miterlimit: 4; fill: url(#SVGID_22890_22921); fill-rule: nonzero; opacity: 1;"  transform=" translate(-34.2131, -72.77135)" d="m 31.508 67.91 h 5.4102 v 9.7227 h -5.4102 z" stroke-linecap="round" />
</g>
		<g transform="matrix(1.3333333333333335 0 0 1.3333333333333335 -12.797200000000005 30.36180000000001)"  >
<linearGradient id="SVGID_22891_22922" gradientUnits="userSpaceOnUse" gradientTransform="matrix(1 0 0 1 37.699 67.91)"  x1="0" y1="0" x2="133.33333333333334" y2="133.33333333333334">
<stop offset="0%" style="stop-color:#FFDA4E;"/>
<stop offset="32%" style="stop-color:#FBDE8A;"/>
<stop offset="68%" style="stop-color:#D8A517;"/>
<stop offset="100%" style="stop-color:#F6BE21;"/>
</linearGradient>
<path style="stroke: none; stroke-width: 1; stroke-dasharray: none; stroke-linecap: butt; stroke-dashoffset: 0; stroke-linejoin: miter; stroke-miterlimit: 4; fill: url(#SVGID_22891_22922); fill-rule: nonzero; opacity: 1;"  transform=" translate(-40.4021, -72.77135)" d="m 37.699 67.91 h 5.4062 v 9.7227 h -5.4062 z" stroke-linecap="round" />
</g>
		<g transform="matrix(1.3333333333333335 0 0 1.3333333333333335 -29.85413333333333 36.35383333333336)"  >
<linearGradient id="SVGID_22892_22923" gradientUnits="userSpaceOnUse" gradientTransform="matrix(1 0 0 1 24.5 76.906)"  x1="0" y1="0" x2="133.33333333333334" y2="133.33333333333334">
<stop offset="0%" style="stop-color:#FFDA4E;"/>
<stop offset="32%" style="stop-color:#FBDE8A;"/>
<stop offset="68%" style="stop-color:#D8A517;"/>
<stop offset="100%" style="stop-color:#F6BE21;"/>
</linearGradient>
<path style="stroke: none; stroke-width: 1; stroke-dasharray: none; stroke-linecap: butt; stroke-dashoffset: 0; stroke-linejoin: miter; stroke-miterlimit: 4; fill: url(#SVGID_22892_22923); fill-rule: nonzero; opacity: 1;"  transform=" translate(-27.6094, -77.265375)" d="m 24.5 76.906 h 6.2188 v 0.71875 h -6.2188 z" stroke-linecap="round" />
</g>
		<g transform="matrix(1.3333333333333335 0 0 1.3333333333333335 -4.020799999999993 36.35383333333336)"  >
<linearGradient id="SVGID_22893_22924" gradientUnits="userSpaceOnUse" gradientTransform="matrix(1 0 0 1 43.875 76.906)"  x1="0" y1="0" x2="133.33333333333334" y2="133.33333333333334">
<stop offset="0%" style="stop-color:#FFDA4E;"/>
<stop offset="32%" style="stop-color:#FBDE8A;"/>
<stop offset="68%" style="stop-color:#D8A517;"/>
<stop offset="100%" style="stop-color:#F6BE21;"/>
</linearGradient>
<path style="stroke: none; stroke-width: 1; stroke-dasharray: none; stroke-linecap: butt; stroke-dashoffset: 0; stroke-linejoin: miter; stroke-miterlimit: 4; fill: url(#SVGID_22893_22924); fill-rule: nonzero; opacity: 1;"  transform=" translate(-46.9844, -77.265375)" d="m 43.875 76.906 h 6.2188 v 0.71875 h -6.2188 z" stroke-linecap="round" />
</g>
		<g transform="matrix(1.3333333333333335 0 0 1.3333333333333335 -16.91175333333334 24.168533333333343)"  >
<linearGradient id="SVGID_22894_22925" gradientUnits="userSpaceOnUse" gradientTransform="matrix(1 0 0 1 22.949000000000005 58.61280000000001)"  x1="0" y1="0" x2="133.33333333333334" y2="133.33333333333334">
<stop offset="0%" style="stop-color:#FFDA4E;"/>
<stop offset="32%" style="stop-color:#FBDE8A;"/>
<stop offset="68%" style="stop-color:#D8A517;"/>
<stop offset="100%" style="stop-color:#F6BE21;"/>
</linearGradient>
<path style="stroke: none; stroke-width: 1; stroke-dasharray: none; stroke-linecap: butt; stroke-dashoffset: 0; stroke-linejoin: miter; stroke-miterlimit: 4; fill: url(#SVGID_22894_22925); fill-rule: nonzero; opacity: 1;"  transform=" translate(-37.316185, -68.1264)" d="m 22.949 65.312 v 12.328 h 0.80078 v -11.586 c 0 -0.15234 0.085938 -0.29297 0.22656 -0.35938 l 13.203 -6.1523 c 0.10156 -0.050781 0.22266 -0.050781 0.32812 0 l 13.172 6.1523 c 0.13672 0.066407 0.22266 0.20703 0.22266 0.35938 v 11.582 h 0.78125 v -12.324 l -14.344 -6.6992 z" stroke-linecap="round" />
</g>
		<g transform="matrix(1.3333333333333335 0 0 1.3333333333333335 21.513519333333335 -26.984780000000004)"  >
<linearGradient id="SVGID_22895_22926" gradientUnits="userSpaceOnUse" gradientTransform="matrix(1 0 0 1 42.149 22.406)"  x1="0" y1="0" x2="133.33333333333334" y2="133.33333333333334">
<stop offset="0%" style="stop-color:#FFDA4E;"/>
<stop offset="32%" style="stop-color:#FBDE8A;"/>
<stop offset="68%" style="stop-color:#D8A517;"/>
<stop offset="100%" style="stop-color:#F6BE21;"/>
</linearGradient>
<path style="stroke: none; stroke-width: 1; stroke-dasharray: none; stroke-linecap: butt; stroke-dashoffset: 0; stroke-linejoin: miter; stroke-miterlimit: 4; fill: url(#SVGID_22895_22926); fill-rule: nonzero; opacity: 1;"  transform=" translate(-66.1351395, -29.761415)" d="m 61.129 22.406 l -18.98 8.8438 l 0.54297 1.1641 l 0.50781 -0.23437 v -0.019532 l 17.754 -8.2812 h 0.054687 v 0.003906 c 0.070313 -0.035156 0.14844 -0.035156 0.21875 0 h 0.050782 l 26.312 12.281 v 0.015626 l 1.9844 0.9375 l 0.54688 -1.1641 z" stroke-linecap="round" />
</g>
		<g transform="matrix(1.3333333333333335 0 0 1.3333333333333335 10.492133333333348 -8.090533333333335)"  >
<linearGradient id="SVGID_22896_22927" gradientUnits="userSpaceOnUse" gradientTransform="matrix(1 0 0 1 55.914 41.977)"  x1="0" y1="0" x2="133.33333333333334" y2="133.33333333333334">
<stop offset="0%" style="stop-color:#FFDA4E;"/>
<stop offset="32%" style="stop-color:#FBDE8A;"/>
<stop offset="68%" style="stop-color:#D8A517;"/>
<stop offset="100%" style="stop-color:#F6BE21;"/>
</linearGradient>
<path style="stroke: none; stroke-width: 1; stroke-dasharray: none; stroke-linecap: butt; stroke-dashoffset: 0; stroke-linejoin: miter; stroke-miterlimit: 4; fill: url(#SVGID_22896_22927); fill-rule: nonzero; opacity: 1;"  transform=" translate(-57.8691, -43.9321)" d="m 55.914 41.977 h 3.9102 v 3.9102 h -3.9102 z" stroke-linecap="round" />
</g>
		<g transform="matrix(1.3333333333333335 0 0 1.3333333333333335 4.524133333333344 -8.090533333333335)"  >
<linearGradient id="SVGID_22897_22928" gradientUnits="userSpaceOnUse" gradientTransform="matrix(1 0 0 1 51.438 41.977)"  x1="0" y1="0" x2="133.33333333333334" y2="133.33333333333334">
<stop offset="0%" style="stop-color:#FFDA4E;"/>
<stop offset="32%" style="stop-color:#FBDE8A;"/>
<stop offset="68%" style="stop-color:#D8A517;"/>
<stop offset="100%" style="stop-color:#F6BE21;"/>
</linearGradient>
<path style="stroke: none; stroke-width: 1; stroke-dasharray: none; stroke-linecap: butt; stroke-dashoffset: 0; stroke-linejoin: miter; stroke-miterlimit: 4; fill: url(#SVGID_22897_22928); fill-rule: nonzero; opacity: 1;"  transform=" translate(-53.393100000000004, -43.9321)" d="m 51.438 41.977 h 3.9102 v 3.9102 h -3.9102 z" stroke-linecap="round" />
</g>
		<g transform="matrix(1.3333333333333335 0 0 1.3333333333333335 4.524133333333344 -2.13319999999999)"  >
<linearGradient id="SVGID_22898_22929" gradientUnits="userSpaceOnUse" gradientTransform="matrix(1 0 0 1 51.438 46.445)"  x1="0" y1="0" x2="133.33333333333334" y2="133.33333333333334">
<stop offset="0%" style="stop-color:#FFDA4E;"/>
<stop offset="32%" style="stop-color:#FBDE8A;"/>
<stop offset="68%" style="stop-color:#D8A517;"/>
<stop offset="100%" style="stop-color:#F6BE21;"/>
</linearGradient>
<path style="stroke: none; stroke-width: 1; stroke-dasharray: none; stroke-linecap: butt; stroke-dashoffset: 0; stroke-linejoin: miter; stroke-miterlimit: 4; fill: url(#SVGID_22898_22929); fill-rule: nonzero; opacity: 1;"  transform=" translate(-53.393100000000004, -48.4001)" d="m 51.438 46.445 h 3.9102 v 3.9102 h -3.9102 z" stroke-linecap="round" />
</g>
		<g transform="matrix(1.3333333333333335 0 0 1.3333333333333335 10.492133333333348 -2.13319999999999)"  >
<linearGradient id="SVGID_22899_22930" gradientUnits="userSpaceOnUse" gradientTransform="matrix(1 0 0 1 55.914 46.445)"  x1="0" y1="0" x2="133.33333333333334" y2="133.33333333333334">
<stop offset="0%" style="stop-color:#FFDA4E;"/>
<stop offset="32%" style="stop-color:#FBDE8A;"/>
<stop offset="68%" style="stop-color:#D8A517;"/>
<stop offset="100%" style="stop-color:#F6BE21;"/>
</linearGradient>
<path style="stroke: none; stroke-width: 1; stroke-dasharray: none; stroke-linecap: butt; stroke-dashoffset: 0; stroke-linejoin: miter; stroke-miterlimit: 4; fill: url(#SVGID_22899_22930); fill-rule: nonzero; opacity: 1;"  transform=" translate(-57.8691, -48.4001)" d="m 55.914 46.445 h 3.9102 v 3.9102 h -3.9102 z" stroke-linecap="round" />
</g>
		<g transform="matrix(1.3333333333333335 0 0 1.3333333333333335 20.507408 1.5692386666666778)"  >
<linearGradient id="SVGID_22900_22931" gradientUnits="userSpaceOnUse" gradientTransform="matrix(1 0 0 1 43.75 24.686429)"  x1="0" y1="0" x2="133.33333333333334" y2="133.33333333333334">
<stop offset="0%" style="stop-color:#FFDA4E;"/>
<stop offset="32%" style="stop-color:#FBDE8A;"/>
<stop offset="68%" style="stop-color:#D8A517;"/>
<stop offset="100%" style="stop-color:#F6BE21;"/>
</linearGradient>
<path style="stroke: none; stroke-width: 1; stroke-dasharray: none; stroke-linecap: butt; stroke-dashoffset: 0; stroke-linejoin: miter; stroke-miterlimit: 4; fill: url(#SVGID_22900_22931); fill-rule: nonzero; opacity: 1;"  transform=" translate(-65.380556, -51.176929)" d="m 43.75 32.789 v 4.7773 l 19.445 -9.082 c 0.097657 -0.035156 0.20313 -0.035156 0.29688 0 c 0.10156 0.035156 0.17969 0.10938 0.22266 0.20312 l 0.87109 1.875 c 0.042968 0.10156 0.042968 0.21094 0 0.3125 c -0.03125 0.097656 -0.10547 0.17578 -0.20313 0.21875 l -2.6523 1.25 v 29.062 l 3.6797 1.7383 h 0.003906 c 0.070313 0.039063 0.12891 0.10547 0.16406 0.17969 c 0 0 0.027344 0.023437 0.035156 0.039062 v 0.003907 c 0.039063 0.09375 0.039063 0.19922 0 0.29297 l -0.84766 1.8438 c -0.042969 0.09375 -0.12109 0.16797 -0.21875 0.20703 c -0.10156 0.039062 -0.21094 0.039062 -0.3125 0 l -2.5 -1.168 v 13.125 h 25.277 v -40.883 l -25.883 -12.098 z m 36.07 41.754 h -3.9062 v -3.918 h 3.9102 z m 0 -4.4766 l -3.9062 0.003906 v -3.9062 h 3.9102 z m 4.4727 4.4766 h -3.9062 v -3.918 h 3.9062 z m 0 -4.4766 h -3.9062 v -3.9062 h 3.9062 z" stroke-linecap="round" />
</g>
</g>
</g>
</svg>